<svg height="768" preserveaspectratio="xMidYMid meet" version="1.0" viewbox="0 0 1024.5 1500.74996" width="1366" xmlns="http://www.w3.org/2000/svg" xmlns:xlink="http://www.w3.org/1999/xlink" zoomandpan="magnify">
<defs>
<clippath id="9a22791289">
<path class="path-1" clip-rule="nonzero" d="M 691.027344 200.464844 L 789.972656 200.464844 L 789.972656 244.695312 L 691.027344 244.695312 Z M 691.027344 200.464844 "></path>
</clippath>
<clippath id="67f7715bec">
<path class="path-2" clip-rule="nonzero" d="M 701.519531 200.464844 L 779.347656 200.464844 C 782.128906 200.464844 784.796875 201.570312 786.765625 203.539062 C 788.734375 205.507812 789.839844 208.175781 789.839844 210.957031 L 789.839844 234.480469 C 789.839844 237.265625 788.734375 239.933594 786.765625 241.902344 C 784.796875 243.871094 782.128906 244.976562 779.347656 244.976562 L 701.519531 244.976562 C 698.738281 244.976562 696.070312 243.871094 694.101562 241.902344 C 692.132812 239.933594 691.027344 237.265625 691.027344 234.480469 L 691.027344 210.957031 C 691.027344 208.175781 692.132812 205.507812 694.101562 203.539062 C 696.070312 201.570312 698.738281 200.464844 701.519531 200.464844 Z M 701.519531 200.464844 "></path>
</clippath>
<clippath id="d08a8eb06d">
<path class="path-3" clip-rule="nonzero" d="M 352.867188 102.640625 L 691.675781 102.640625 L 691.675781 164.859375 L 352.867188 164.859375 Z M 352.867188 102.640625 "></path>
</clippath>
<clippath id="d61870c7b2">
<path class="path-4" clip-rule="nonzero" d="M 363.359375 102.640625 L 681.210938 102.640625 C 683.996094 102.640625 686.664062 103.746094 688.632812 105.714844 C 690.597656 107.683594 691.703125 110.351562 691.703125 113.132812 L 691.703125 154.402344 C 691.703125 157.1875 690.597656 159.855469 688.632812 161.824219 C 686.664062 163.789062 683.996094 164.894531 681.210938 164.894531 L 363.359375 164.894531 C 360.578125 164.894531 357.910156 163.789062 355.941406 161.824219 C 353.972656 159.855469 352.867188 157.1875 352.867188 154.402344 L 352.867188 113.132812 C 352.867188 110.351562 353.972656 107.683594 355.941406 105.714844 C 357.910156 103.746094 360.578125 102.640625 363.359375 102.640625 Z M 363.359375 102.640625 "></path>
</clippath>
<clippath id="1a10c16704">
<path class="path-5" clip-rule="nonzero" d="M 273.738281 199.597656 L 372.683594 199.597656 L 372.683594 243.824219 L 273.738281 243.824219 Z M 273.738281 199.597656 "></path>
</clippath>
<clippath id="d5e9183f82">
<path class="path-6" clip-rule="nonzero" d="M 284.230469 199.597656 L 362.054688 199.597656 C 364.835938 199.597656 367.507812 200.703125 369.472656 202.667969 C 371.441406 204.636719 372.546875 207.304688 372.546875 210.089844 L 372.546875 233.613281 C 372.546875 236.394531 371.441406 239.0625 369.472656 241.03125 C 367.507812 243 364.835938 244.105469 362.054688 244.105469 L 284.230469 244.105469 C 281.445312 244.105469 278.777344 243 276.808594 241.03125 C 274.84375 239.0625 273.738281 236.394531 273.738281 233.613281 L 273.738281 210.089844 C 273.738281 207.304688 274.84375 204.636719 276.808594 202.667969 C 278.777344 200.703125 281.445312 199.597656 284.230469 199.597656 Z M 284.230469 199.597656 "></path>
</clippath>
<clippath id="b7efe928ad">
<path class="path-7" clip-rule="nonzero" d="M 412.726562 199.597656 L 511.671875 199.597656 L 511.671875 243.824219 L 412.726562 243.824219 Z M 412.726562 199.597656 "></path>
</clippath>
<clippath id="1bd43073ab">
<path class="path-8" clip-rule="nonzero" d="M 423.21875 199.597656 L 501.042969 199.597656 C 503.828125 199.597656 506.496094 200.703125 508.464844 202.667969 C 510.433594 204.636719 511.539062 207.304688 511.539062 210.089844 L 511.539062 233.613281 C 511.539062 236.394531 510.433594 239.0625 508.464844 241.03125 C 506.496094 243 503.828125 244.105469 501.042969 244.105469 L 423.21875 244.105469 C 420.4375 244.105469 417.769531 243 415.800781 241.03125 C 413.832031 239.0625 412.726562 236.394531 412.726562 233.613281 L 412.726562 210.089844 C 412.726562 207.304688 413.832031 204.636719 415.800781 202.667969 C 417.769531 200.703125 420.4375 199.597656 423.21875 199.597656 Z M 423.21875 199.597656 "></path>
</clippath>
<clippath id="b4fc85d8a6">
<path class="path-9" clip-rule="nonzero" d="M 551.71875 199.597656 L 650.664062 199.597656 L 650.664062 243.824219 L 551.71875 243.824219 Z M 551.71875 199.597656 "></path>
</clippath>
<clippath id="c1abe1ade2">
<path class="path-10" clip-rule="nonzero" d="M 562.210938 199.597656 L 640.035156 199.597656 C 642.816406 199.597656 645.488281 200.703125 647.453125 202.667969 C 649.421875 204.636719 650.527344 207.304688 650.527344 210.089844 L 650.527344 233.613281 C 650.527344 236.394531 649.421875 239.0625 647.453125 241.03125 C 645.488281 243 642.816406 244.105469 640.035156 244.105469 L 562.210938 244.105469 C 559.425781 244.105469 556.757812 243 554.789062 241.03125 C 552.824219 239.0625 551.71875 236.394531 551.71875 233.613281 L 551.71875 210.089844 C 551.71875 207.304688 552.824219 204.636719 554.789062 202.667969 C 556.757812 200.703125 559.425781 199.597656 562.210938 199.597656 Z M 562.210938 199.597656 "></path>
</clippath>
<clippath id="1d4deba3cc">
<path class="path-11" clip-rule="nonzero" d="M 265.121094 378.628906 L 364 378.628906 L 364 440.097656 L 265.121094 440.097656 Z M 265.121094 378.628906 "></path>
</clippath>
<clippath id="0a1aacf259">
<path class="path-12" clip-rule="nonzero" d="M 275.617188 378.628906 L 353.449219 378.628906 C 356.234375 378.628906 358.902344 379.734375 360.871094 381.699219 C 362.839844 383.667969 363.945312 386.339844 363.945312 389.121094 L 363.945312 429.824219 C 363.945312 432.609375 362.839844 435.277344 360.871094 437.246094 C 358.902344 439.214844 356.234375 440.320312 353.449219 440.320312 L 275.617188 440.320312 C 272.832031 440.320312 270.164062 439.214844 268.195312 437.246094 C 266.226562 435.277344 265.121094 432.609375 265.121094 429.824219 L 265.121094 389.121094 C 265.121094 386.339844 266.226562 383.667969 268.195312 381.699219 C 270.164062 379.734375 272.832031 378.628906 275.617188 378.628906 Z M 275.617188 378.628906 "></path>
</clippath>
<clippath id="7ed7a65b86">
<path class="path-13" clip-rule="nonzero" d="M 353.234375 282.007812 L 692.039062 282.007812 L 692.039062 344.226562 L 353.234375 344.226562 Z M 353.234375 282.007812 "></path>
</clippath>
<clippath id="6e1e1cce57">
<path class="path-14" clip-rule="nonzero" d="M 363.726562 282.007812 L 681.578125 282.007812 C 684.359375 282.007812 687.03125 283.113281 688.996094 285.078125 C 690.964844 287.046875 692.070312 289.714844 692.070312 292.5 L 692.070312 333.769531 C 692.070312 336.550781 690.964844 339.21875 688.996094 341.1875 C 687.03125 343.15625 684.359375 344.261719 681.578125 344.261719 L 363.726562 344.261719 C 360.945312 344.261719 358.273438 343.15625 356.308594 341.1875 C 354.339844 339.21875 353.234375 336.550781 353.234375 333.769531 L 353.234375 292.5 C 353.234375 289.714844 354.339844 287.046875 356.308594 285.078125 C 358.273438 283.113281 360.945312 282.007812 363.726562 282.007812 Z M 363.726562 282.007812 "></path>
</clippath>
<clippath id="e679f734e4">
<path class="path-15" clip-rule="nonzero" d="M 681.726562 378.628906 L 780.679688 378.628906 L 780.679688 440.097656 L 681.726562 440.097656 Z M 681.726562 378.628906 "></path>
</clippath>
<clippath id="a0de882357">
<path class="path-16" clip-rule="nonzero" d="M 692.21875 378.628906 L 770.054688 378.628906 C 772.839844 378.628906 775.507812 379.734375 777.476562 381.699219 C 779.441406 383.667969 780.550781 386.339844 780.550781 389.121094 L 780.550781 429.824219 C 780.550781 432.609375 779.441406 435.277344 777.476562 437.246094 C 775.507812 439.214844 772.839844 440.320312 770.054688 440.320312 L 692.21875 440.320312 C 689.4375 440.320312 686.769531 439.214844 684.800781 437.246094 C 682.832031 435.277344 681.726562 432.609375 681.726562 429.824219 L 681.726562 389.121094 C 681.726562 386.339844 682.832031 383.667969 684.800781 381.699219 C 686.769531 379.734375 689.4375 378.628906 692.21875 378.628906 Z M 692.21875 378.628906 "></path>
</clippath>
<clippath id="4d62c4f697">
<path class="path-17" clip-rule="nonzero" d="M 265.125 474.679688 L 364 474.679688 L 364 536.898438 L 265.125 536.898438 Z M 265.125 474.679688 "></path>
</clippath>
<clippath id="25ea5fac5f">
<path class="path-18" clip-rule="nonzero" d="M 275.617188 474.679688 L 353.449219 474.679688 C 356.230469 474.679688 358.898438 475.785156 360.867188 477.75 C 362.835938 479.71875 363.941406 482.390625 363.941406 485.171875 L 363.941406 526.171875 C 363.941406 528.953125 362.835938 531.621094 360.867188 533.589844 C 358.898438 535.558594 356.230469 536.664062 353.449219 536.664062 L 275.617188 536.664062 C 272.835938 536.664062 270.164062 535.558594 268.199219 533.589844 C 266.230469 531.621094 265.125 528.953125 265.125 526.171875 L 265.125 485.171875 C 265.125 482.390625 266.230469 479.71875 268.199219 477.75 C 270.164062 475.785156 272.835938 474.679688 275.617188 474.679688 Z M 275.617188 474.679688 "></path>
</clippath>
<clippath id="eef3840864">
<path class="path-19" clip-rule="nonzero" d="M 404.113281 474.679688 L 503 474.679688 L 503 536.898438 L 404.113281 536.898438 Z M 404.113281 474.679688 "></path>
</clippath>
<clippath id="074eae6ad9">
<path class="path-20" clip-rule="nonzero" d="M 414.609375 474.679688 L 492.4375 474.679688 C 495.222656 474.679688 497.890625 475.785156 499.859375 477.75 C 501.824219 479.71875 502.929688 482.390625 502.929688 485.171875 L 502.929688 526.171875 C 502.929688 528.953125 501.824219 531.621094 499.859375 533.589844 C 497.890625 535.558594 495.222656 536.664062 492.4375 536.664062 L 414.609375 536.664062 C 411.824219 536.664062 409.15625 535.558594 407.1875 533.589844 C 405.21875 531.621094 404.113281 528.953125 404.113281 526.171875 L 404.113281 485.171875 C 404.113281 482.390625 405.21875 479.71875 407.1875 477.75 C 409.15625 475.785156 411.824219 474.679688 414.609375 474.679688 Z M 414.609375 474.679688 "></path>
</clippath>
<clippath id="d700b63ffc">
<path class="path-21" clip-rule="nonzero" d="M 543.105469 474.679688 L 642 474.679688 L 642 536.898438 L 543.105469 536.898438 Z M 543.105469 474.679688 "></path>
</clippath>
<clippath id="9b67a45067">
<path class="path-22" clip-rule="nonzero" d="M 553.597656 474.679688 L 631.429688 474.679688 C 634.210938 474.679688 636.878906 475.785156 638.847656 477.75 C 640.816406 479.71875 641.921875 482.390625 641.921875 485.171875 L 641.921875 526.171875 C 641.921875 528.953125 640.816406 531.621094 638.847656 533.589844 C 636.878906 535.558594 634.210938 536.664062 631.429688 536.664062 L 553.597656 536.664062 C 550.816406 536.664062 548.144531 535.558594 546.179688 533.589844 C 544.210938 531.621094 543.105469 528.953125 543.105469 526.171875 L 543.105469 485.171875 C 543.105469 482.390625 544.210938 479.71875 546.179688 477.75 C 548.144531 475.785156 550.816406 474.679688 553.597656 474.679688 Z M 553.597656 474.679688 "></path>
</clippath>
<clippath id="13f3da0b9a">
<path class="path-23" clip-rule="nonzero" d="M 682.09375 474.679688 L 781 474.679688 L 781 536.898438 L 682.09375 536.898438 Z M 682.09375 474.679688 "></path>
</clippath>
<clippath id="7cd2963821">
<path class="path-24" clip-rule="nonzero" d="M 692.589844 474.679688 L 770.417969 474.679688 C 773.203125 474.679688 775.871094 475.785156 777.839844 477.75 C 779.804688 479.71875 780.910156 482.390625 780.910156 485.171875 L 780.910156 526.171875 C 780.910156 528.953125 779.804688 531.621094 777.839844 533.589844 C 775.871094 535.558594 773.203125 536.664062 770.417969 536.664062 L 692.589844 536.664062 C 689.804688 536.664062 687.136719 535.558594 685.167969 533.589844 C 683.199219 531.621094 682.09375 528.953125 682.09375 526.171875 L 682.09375 485.171875 C 682.09375 482.390625 683.199219 479.71875 685.167969 477.75 C 687.136719 475.785156 689.804688 474.679688 692.589844 474.679688 Z M 692.589844 474.679688 "></path>
</clippath>
<clippath id="e2b6bd0477">
<path class="path-25" clip-rule="nonzero" d="M 355.449219 579.921875 L 694.253906 579.921875 L 694.253906 642.140625 L 355.449219 642.140625 Z M 355.449219 579.921875 "></path>
</clippath>
<clippath id="b8be2a9451">
<path class="path-26" clip-rule="nonzero" d="M 365.941406 579.921875 L 683.792969 579.921875 C 686.574219 579.921875 689.242188 581.027344 691.210938 582.992188 C 693.179688 584.960938 694.285156 587.628906 694.285156 590.414062 L 694.285156 631.683594 C 694.285156 634.464844 693.179688 637.132812 691.210938 639.101562 C 689.242188 641.070312 686.574219 642.175781 683.792969 642.175781 L 365.941406 642.175781 C 363.160156 642.175781 360.488281 641.070312 358.523438 639.101562 C 356.554688 637.132812 355.449219 634.464844 355.449219 631.683594 L 355.449219 590.414062 C 355.449219 587.628906 356.554688 584.960938 358.523438 582.992188 C 360.488281 581.027344 363.160156 579.921875 365.941406 579.921875 Z M 365.941406 579.921875 "></path>
</clippath>
<clippath id="1c96cf656f">
<path class="path-27" clip-rule="nonzero" d="M 184.902344 657.703125 L 373.046875 657.703125 L 373.046875 719.925781 L 184.902344 719.925781 Z M 184.902344 657.703125 "></path>
</clippath>
<clippath id="ae775c3e18">
<path class="path-28" clip-rule="nonzero" d="M 195.398438 657.703125 L 362.78125 657.703125 C 365.5625 657.703125 368.234375 658.808594 370.199219 660.777344 C 372.167969 662.746094 373.273438 665.414062 373.273438 668.199219 L 373.273438 709.464844 C 373.273438 712.25 372.167969 714.917969 370.199219 716.886719 C 368.234375 718.855469 365.5625 719.960938 362.78125 719.960938 L 195.398438 719.960938 C 192.613281 719.960938 189.945312 718.855469 187.976562 716.886719 C 186.007812 714.917969 184.902344 712.25 184.902344 709.464844 L 184.902344 668.199219 C 184.902344 665.414062 186.007812 662.746094 187.976562 660.777344 C 189.945312 658.808594 192.613281 657.703125 195.398438 657.703125 Z M 195.398438 657.703125 "></path>
</clippath>
<clippath id="d6c6d015e7">
<path class="path-29" clip-rule="nonzero" d="M 223.75 784.417969 L 322.695312 784.417969 L 322.695312 828.648438 L 223.75 828.648438 Z M 223.75 784.417969 "></path>
</clippath>
<clippath id="9c8c8427c4">
<path class="path-30" clip-rule="nonzero" d="M 234.242188 784.417969 L 312.066406 784.417969 C 314.847656 784.417969 317.515625 785.523438 319.484375 787.492188 C 321.453125 789.460938 322.558594 792.128906 322.558594 794.910156 L 322.558594 818.433594 C 322.558594 821.21875 321.453125 823.886719 319.484375 825.855469 C 317.515625 827.824219 314.847656 828.929688 312.066406 828.929688 L 234.242188 828.929688 C 231.457031 828.929688 228.789062 827.824219 226.820312 825.855469 C 224.855469 823.886719 223.75 821.21875 223.75 818.433594 L 223.75 794.910156 C 223.75 792.128906 224.855469 789.460938 226.820312 787.492188 C 228.789062 785.523438 231.457031 784.417969 234.242188 784.417969 Z M 234.242188 784.417969 "></path>
</clippath>
<clippath id="c795d1cdcd">
<path class="path-31" clip-rule="nonzero" d="M 222.621094 844.375 L 321.570312 844.375 L 321.570312 888.605469 L 222.621094 888.605469 Z M 222.621094 844.375 "></path>
</clippath>
<clippath id="1b174bfaa9">
<path class="path-32" clip-rule="nonzero" d="M 233.117188 844.375 L 310.941406 844.375 C 313.722656 844.375 316.390625 845.480469 318.359375 847.449219 C 320.328125 849.417969 321.433594 852.085938 321.433594 854.867188 L 321.433594 878.394531 C 321.433594 881.175781 320.328125 883.84375 318.359375 885.8125 C 316.390625 887.78125 313.722656 888.886719 310.941406 888.886719 L 233.117188 888.886719 C 230.332031 888.886719 227.664062 887.78125 225.695312 885.8125 C 223.726562 883.84375 222.621094 881.175781 222.621094 878.394531 L 222.621094 854.867188 C 222.621094 852.085938 223.726562 849.417969 225.695312 847.449219 C 227.664062 845.480469 230.332031 844.375 233.117188 844.375 Z M 233.117188 844.375 "></path>
</clippath>
<clippath id="f51ba2b2da">
<path class="path-33" clip-rule="nonzero" d="M 222.621094 904.902344 L 321.570312 904.902344 L 321.570312 949.132812 L 222.621094 949.132812 Z M 222.621094 904.902344 "></path>
</clippath>
<clippath id="d553057496">
<path class="path-34" clip-rule="nonzero" d="M 233.117188 904.902344 L 310.941406 904.902344 C 313.722656 904.902344 316.390625 906.007812 318.359375 907.976562 C 320.328125 909.945312 321.433594 912.613281 321.433594 915.398438 L 321.433594 938.921875 C 321.433594 941.703125 320.328125 944.371094 318.359375 946.339844 C 316.390625 948.308594 313.722656 949.414062 310.941406 949.414062 L 233.117188 949.414062 C 230.332031 949.414062 227.664062 948.308594 225.695312 946.339844 C 223.726562 944.371094 222.621094 941.703125 222.621094 938.921875 L 222.621094 915.398438 C 222.621094 912.613281 223.726562 909.945312 225.695312 907.976562 C 227.664062 906.007812 230.332031 904.902344 233.117188 904.902344 Z M 233.117188 904.902344 "></path>
</clippath>
<clippath id="afa3b831a6">
<path class="path-35" clip-rule="nonzero" d="M 222.621094 965.433594 L 321.570312 965.433594 L 321.570312 1009.660156 L 222.621094 1009.660156 Z M 222.621094 965.433594 "></path>
</clippath>
<clippath id="ce3ea74c54">
<path class="path-36" clip-rule="nonzero" d="M 233.117188 965.433594 L 310.941406 965.433594 C 313.722656 965.433594 316.390625 966.539062 318.359375 968.503906 C 320.328125 970.472656 321.433594 973.140625 321.433594 975.925781 L 321.433594 999.449219 C 321.433594 1002.230469 320.328125 1004.898438 318.359375 1006.867188 C 316.390625 1008.835938 313.722656 1009.941406 310.941406 1009.941406 L 233.117188 1009.941406 C 230.332031 1009.941406 227.664062 1008.835938 225.695312 1006.867188 C 223.726562 1004.898438 222.621094 1002.230469 222.621094 999.449219 L 222.621094 975.925781 C 222.621094 973.140625 223.726562 970.472656 225.695312 968.503906 C 227.664062 966.539062 230.332031 965.433594 233.117188 965.433594 Z M 233.117188 965.433594 "></path>
</clippath>
<clippath id="ac24cd4dd3">
<path class="path-37" clip-rule="nonzero" d="M 222.621094 1025.960938 L 321.570312 1025.960938 L 321.570312 1070.1875 L 222.621094 1070.1875 Z M 222.621094 1025.960938 "></path>
</clippath>
<clippath id="df25a6f270">
<path class="path-38" clip-rule="nonzero" d="M 233.117188 1025.960938 L 310.941406 1025.960938 C 313.722656 1025.960938 316.390625 1027.066406 318.359375 1029.03125 C 320.328125 1031 321.433594 1033.667969 321.433594 1036.453125 L 321.433594 1059.976562 C 321.433594 1062.757812 320.328125 1065.429688 318.359375 1067.394531 C 316.390625 1069.363281 313.722656 1070.46875 310.941406 1070.46875 L 233.117188 1070.46875 C 230.332031 1070.46875 227.664062 1069.363281 225.695312 1067.394531 C 223.726562 1065.429688 222.621094 1062.757812 222.621094 1059.976562 L 222.621094 1036.453125 C 222.621094 1033.667969 223.726562 1031 225.695312 1029.03125 C 227.664062 1027.066406 230.332031 1025.960938 233.117188 1025.960938 Z M 233.117188 1025.960938 "></path>
</clippath>
<clippath id="23e09d9aa7">
<path class="path-39" clip-rule="nonzero" d="M 222.621094 1086.488281 L 321.570312 1086.488281 L 321.570312 1130.714844 L 222.621094 1130.714844 Z M 222.621094 1086.488281 "></path>
</clippath>
<clippath id="c1180d3ba5">
<path class="path-40" clip-rule="nonzero" d="M 233.117188 1086.488281 L 310.941406 1086.488281 C 313.722656 1086.488281 316.390625 1087.59375 318.359375 1089.5625 C 320.328125 1091.527344 321.433594 1094.199219 321.433594 1096.980469 L 321.433594 1120.503906 C 321.433594 1123.285156 320.328125 1125.957031 318.359375 1127.921875 C 316.390625 1129.890625 313.722656 1130.996094 310.941406 1130.996094 L 233.117188 1130.996094 C 230.332031 1130.996094 227.664062 1129.890625 225.695312 1127.921875 C 223.726562 1125.957031 222.621094 1123.285156 222.621094 1120.503906 L 222.621094 1096.980469 C 222.621094 1094.199219 223.726562 1091.527344 225.695312 1089.5625 C 227.664062 1087.59375 230.332031 1086.488281 233.117188 1086.488281 Z M 233.117188 1086.488281 "></path>
</clippath>
<clippath id="f4945df0f0">
<path class="path-41" clip-rule="nonzero" d="M 701.8125 784.417969 L 894.46875 784.417969 L 894.46875 845 L 701.8125 845 Z M 701.8125 784.417969 "></path>
</clippath>
<clippath id="8e03f9a5ba">
<path class="path-42" clip-rule="nonzero" d="M 712.308594 784.417969 L 884.324219 784.417969 C 887.105469 784.417969 889.777344 785.523438 891.742188 787.492188 C 893.710938 789.460938 894.816406 792.128906 894.816406 794.914062 L 894.816406 834.386719 C 894.816406 837.171875 893.710938 839.839844 891.742188 841.808594 C 889.777344 843.777344 887.105469 844.882812 884.324219 844.882812 L 712.308594 844.882812 C 709.523438 844.882812 706.855469 843.777344 704.886719 841.808594 C 702.917969 839.839844 701.8125 837.171875 701.8125 834.386719 L 701.8125 794.914062 C 701.8125 792.128906 702.917969 789.460938 704.886719 787.492188 C 706.855469 785.523438 709.523438 784.417969 712.308594 784.417969 Z M 712.308594 784.417969 "></path>
</clippath>
<clippath id="dae98df4bd">
<path class="path-43" clip-rule="nonzero" d="M 192.695312 1165.027344 L 351.609375 1165.027344 L 351.609375 1217.5 L 192.695312 1217.5 Z M 192.695312 1165.027344 "></path>
</clippath>
<clippath id="5d7eb4dfb1">
<path class="path-44" clip-rule="nonzero" d="M 203.1875 1165.027344 L 340.871094 1165.027344 C 343.65625 1165.027344 346.324219 1166.132812 348.292969 1168.101562 C 350.257812 1170.066406 351.363281 1172.738281 351.363281 1175.519531 L 351.363281 1206.84375 C 351.363281 1209.625 350.257812 1212.296875 348.292969 1214.261719 C 346.324219 1216.230469 343.65625 1217.335938 340.871094 1217.335938 L 203.1875 1217.335938 C 200.40625 1217.335938 197.738281 1216.230469 195.769531 1214.261719 C 193.800781 1212.296875 192.695312 1209.625 192.695312 1206.84375 L 192.695312 1175.519531 C 192.695312 1172.738281 193.800781 1170.066406 195.769531 1168.101562 C 197.738281 1166.132812 200.40625 1165.027344 203.1875 1165.027344 Z M 203.1875 1165.027344 "></path>
</clippath>
<clippath id="123706d206">
<path class="path-45" clip-rule="nonzero" d="M 701.8125 879.347656 L 894.46875 879.347656 L 894.46875 940 L 701.8125 940 Z M 701.8125 879.347656 "></path>
</clippath>
<clippath id="48e892e239">
<path class="path-46" clip-rule="nonzero" d="M 712.308594 879.347656 L 884.324219 879.347656 C 887.105469 879.347656 889.777344 880.453125 891.742188 882.421875 C 893.710938 884.390625 894.816406 887.058594 894.816406 889.84375 L 894.816406 929.316406 C 894.816406 932.101562 893.710938 934.769531 891.742188 936.738281 C 889.777344 938.707031 887.105469 939.8125 884.324219 939.8125 L 712.308594 939.8125 C 709.523438 939.8125 706.855469 938.707031 704.886719 936.738281 C 702.917969 934.769531 701.8125 932.101562 701.8125 929.316406 L 701.8125 889.84375 C 701.8125 887.058594 702.917969 884.390625 704.886719 882.421875 C 706.855469 880.453125 709.523438 879.347656 712.308594 879.347656 Z M 712.308594 879.347656 "></path>
</clippath>
<clippath id="a6f732f9f0">
<path class="path-47" clip-rule="nonzero" d="M 701.8125 974.28125 L 894.46875 974.28125 L 894.46875 1035 L 701.8125 1035 Z M 701.8125 974.28125 "></path>
</clippath>
<clippath id="63d9ea8b05">
<path class="path-48" clip-rule="nonzero" d="M 712.308594 974.28125 L 884.324219 974.28125 C 887.105469 974.28125 889.777344 975.386719 891.742188 977.355469 C 893.710938 979.320312 894.816406 981.992188 894.816406 984.773438 L 894.816406 1024.25 C 894.816406 1027.03125 893.710938 1029.699219 891.742188 1031.667969 C 889.777344 1033.636719 887.105469 1034.742188 884.324219 1034.742188 L 712.308594 1034.742188 C 709.523438 1034.742188 706.855469 1033.636719 704.886719 1031.667969 C 702.917969 1029.699219 701.8125 1027.03125 701.8125 1024.25 L 701.8125 984.773438 C 701.8125 981.992188 702.917969 979.320312 704.886719 977.355469 C 706.855469 975.386719 709.523438 974.28125 712.308594 974.28125 Z M 712.308594 974.28125 "></path>
</clippath>
<clippath id="36ff67490d">
<path class="path-49" clip-rule="nonzero" d="M 701.8125 1069.210938 L 894.46875 1069.210938 L 894.46875 1129.929688 L 701.8125 1129.929688 Z M 701.8125 1069.210938 "></path>
</clippath>
<clippath id="bb93927c06">
<path class="path-50" clip-rule="nonzero" d="M 712.308594 1069.210938 L 884.324219 1069.210938 C 887.105469 1069.210938 889.777344 1070.316406 891.742188 1072.285156 C 893.710938 1074.253906 894.816406 1076.921875 894.816406 1079.707031 L 894.816406 1119.179688 C 894.816406 1121.960938 893.710938 1124.632812 891.742188 1126.597656 C 889.777344 1128.566406 887.105469 1129.671875 884.324219 1129.671875 L 712.308594 1129.671875 C 709.523438 1129.671875 706.855469 1128.566406 704.886719 1126.597656 C 702.917969 1124.632812 701.8125 1121.960938 701.8125 1119.179688 L 701.8125 1079.707031 C 701.8125 1076.921875 702.917969 1074.253906 704.886719 1072.285156 C 706.855469 1070.316406 709.523438 1069.210938 712.308594 1069.210938 Z M 712.308594 1069.210938 "></path>
</clippath>
<clippath id="3f97901f02">
<path class="path-51" clip-rule="nonzero" d="M 637.320312 656.878906 L 825.460938 656.878906 L 825.460938 719.097656 L 637.320312 719.097656 Z M 637.320312 656.878906 "></path>
</clippath>
<clippath id="ddb0c4dc29">
<path class="path-52" clip-rule="nonzero" d="M 647.8125 656.878906 L 815.199219 656.878906 C 817.980469 656.878906 820.648438 657.984375 822.617188 659.953125 C 824.585938 661.921875 825.691406 664.589844 825.691406 667.371094 L 825.691406 708.640625 C 825.691406 711.425781 824.585938 714.09375 822.617188 716.0625 C 820.648438 718.027344 817.980469 719.132812 815.199219 719.132812 L 647.8125 719.132812 C 645.03125 719.132812 642.363281 718.027344 640.394531 716.0625 C 638.425781 714.09375 637.320312 711.425781 637.320312 708.640625 L 637.320312 667.371094 C 637.320312 664.589844 638.425781 661.921875 640.394531 659.953125 C 642.363281 657.984375 645.03125 656.878906 647.8125 656.878906 Z M 647.8125 656.878906 "></path>
</clippath>
<clippath id="6015bcf28a">
<path class="path-53" clip-rule="nonzero" d="M 428.363281 783.910156 L 621.019531 783.910156 L 621.019531 844.632812 L 428.363281 844.632812 Z M 428.363281 783.910156 "></path>
</clippath>
<clippath id="1ad0e63e8f">
<path class="path-54" clip-rule="nonzero" d="M 438.859375 783.910156 L 610.875 783.910156 C 613.660156 783.910156 616.328125 785.015625 618.296875 786.984375 C 620.265625 788.953125 621.371094 791.621094 621.371094 794.40625 L 621.371094 833.878906 C 621.371094 836.664062 620.265625 839.332031 618.296875 841.300781 C 616.328125 843.269531 613.660156 844.375 610.875 844.375 L 438.859375 844.375 C 436.078125 844.375 433.40625 843.269531 431.4375 841.300781 C 429.472656 839.332031 428.363281 836.664062 428.363281 833.878906 L 428.363281 794.40625 C 428.363281 791.621094 429.472656 788.953125 431.4375 786.984375 C 433.40625 785.015625 436.078125 783.910156 438.859375 783.910156 Z M 438.859375 783.910156 "></path>
</clippath>
<clippath id="c39d0a16e5">
<path class="path-55" clip-rule="nonzero" d="M 408.109375 866.636719 L 507 866.636719 L 507 910.863281 L 408.109375 910.863281 Z M 408.109375 866.636719 "></path>
</clippath>
<clippath id="c001306472">
<path class="path-56" clip-rule="nonzero" d="M 418.601562 866.636719 L 496.425781 866.636719 C 499.207031 866.636719 501.878906 867.742188 503.84375 869.707031 C 505.8125 871.675781 506.917969 874.34375 506.917969 877.128906 L 506.917969 900.652344 C 506.917969 903.433594 505.8125 906.105469 503.84375 908.070312 C 501.878906 910.039062 499.207031 911.144531 496.425781 911.144531 L 418.601562 911.144531 C 415.816406 911.144531 413.148438 910.039062 411.179688 908.070312 C 409.214844 906.105469 408.109375 903.433594 408.109375 900.652344 L 408.109375 877.128906 C 408.109375 874.34375 409.214844 871.675781 411.179688 869.707031 C 413.148438 867.742188 415.816406 866.636719 418.601562 866.636719 Z M 418.601562 866.636719 "></path>
</clippath>
<clippath id="e106487f5b">
<path class="path-57" clip-rule="nonzero" d="M 526.410156 865.0625 L 625.355469 865.0625 L 625.355469 909.292969 L 526.410156 909.292969 Z M 526.410156 865.0625 "></path>
</clippath>
<clippath id="c5f674a965">
<path class="path-58" clip-rule="nonzero" d="M 536.902344 865.0625 L 614.726562 865.0625 C 617.511719 865.0625 620.179688 866.167969 622.148438 868.136719 C 624.113281 870.105469 625.21875 872.773438 625.21875 875.554688 L 625.21875 899.082031 C 625.21875 901.863281 624.113281 904.53125 622.148438 906.5 C 620.179688 908.46875 617.511719 909.574219 614.726562 909.574219 L 536.902344 909.574219 C 534.121094 909.574219 531.449219 908.46875 529.484375 906.5 C 527.515625 904.53125 526.410156 901.863281 526.410156 899.082031 L 526.410156 875.554688 C 526.410156 872.773438 527.515625 870.105469 529.484375 868.136719 C 531.449219 866.167969 534.121094 865.0625 536.902344 865.0625 Z M 536.902344 865.0625 "></path>
</clippath>
<clippath id="5d416db698">
<path class="path-59" clip-rule="nonzero" d="M 473.613281 933.640625 L 572.558594 933.640625 L 572.558594 977.871094 L 473.613281 977.871094 Z M 473.613281 933.640625 "></path>
</clippath>
<clippath id="22fb22e298">
<path class="path-60" clip-rule="nonzero" d="M 484.105469 933.640625 L 561.929688 933.640625 C 564.714844 933.640625 567.382812 934.746094 569.351562 936.714844 C 571.316406 938.683594 572.421875 941.351562 572.421875 944.132812 L 572.421875 967.65625 C 572.421875 970.441406 571.316406 973.109375 569.351562 975.078125 C 567.382812 977.046875 564.714844 978.152344 561.929688 978.152344 L 484.105469 978.152344 C 481.324219 978.152344 478.652344 977.046875 476.6875 975.078125 C 474.71875 973.109375 473.613281 970.441406 473.613281 967.65625 L 473.613281 944.132812 C 473.613281 941.351562 474.71875 938.683594 476.6875 936.714844 C 478.652344 934.746094 481.324219 933.640625 484.105469 933.640625 Z M 484.105469 933.640625 "></path>
</clippath>
<clippath id="a4534aa5ef">
<path class="path-61" clip-rule="nonzero" d="M 428.363281 1039.964844 L 621.019531 1039.964844 L 621.019531 1100.6875 L 428.363281 1100.6875 Z M 428.363281 1039.964844 "></path>
</clippath>
<clippath id="7479728425">
<path class="path-62" clip-rule="nonzero" d="M 438.859375 1039.964844 L 610.875 1039.964844 C 613.660156 1039.964844 616.328125 1041.070312 618.296875 1043.039062 C 620.265625 1045.007812 621.371094 1047.675781 621.371094 1050.460938 L 621.371094 1089.933594 C 621.371094 1092.71875 620.265625 1095.386719 618.296875 1097.355469 C 616.328125 1099.324219 613.660156 1100.429688 610.875 1100.429688 L 438.859375 1100.429688 C 436.078125 1100.429688 433.40625 1099.324219 431.4375 1097.355469 C 429.472656 1095.386719 428.363281 1092.71875 428.363281 1089.933594 L 428.363281 1050.460938 C 428.363281 1047.675781 429.472656 1045.007812 431.4375 1043.039062 C 433.40625 1041.070312 436.078125 1039.964844 438.859375 1039.964844 Z M 438.859375 1039.964844 "></path>
</clippath>
<clippath id="d14b3c51d6">
<path class="path-63" clip-rule="nonzero" d="M 408.109375 1120.507812 L 507 1120.507812 L 507 1164.738281 L 408.109375 1164.738281 Z M 408.109375 1120.507812 "></path>
</clippath>
<clippath id="fbf1008f41">
<path class="path-64" clip-rule="nonzero" d="M 418.601562 1120.507812 L 496.425781 1120.507812 C 499.207031 1120.507812 501.878906 1121.613281 503.84375 1123.582031 C 505.8125 1125.550781 506.917969 1128.21875 506.917969 1131 L 506.917969 1154.523438 C 506.917969 1157.308594 505.8125 1159.976562 503.84375 1161.945312 C 501.878906 1163.914062 499.207031 1165.019531 496.425781 1165.019531 L 418.601562 1165.019531 C 415.816406 1165.019531 413.148438 1163.914062 411.179688 1161.945312 C 409.214844 1159.976562 408.109375 1157.308594 408.109375 1154.523438 L 408.109375 1131 C 408.109375 1128.21875 409.214844 1125.550781 411.179688 1123.582031 C 413.148438 1121.613281 415.816406 1120.507812 418.601562 1120.507812 Z M 418.601562 1120.507812 "></path>
</clippath>
<clippath id="3a8501e44c">
<path class="path-65" clip-rule="nonzero" d="M 526.410156 1120.777344 L 625.355469 1120.777344 L 625.355469 1165.007812 L 526.410156 1165.007812 Z M 526.410156 1120.777344 "></path>
</clippath>
<clippath id="6fc7e78761">
<path class="path-66" clip-rule="nonzero" d="M 536.902344 1120.777344 L 614.726562 1120.777344 C 617.511719 1120.777344 620.179688 1121.882812 622.148438 1123.851562 C 624.113281 1125.820312 625.21875 1128.488281 625.21875 1131.269531 L 625.21875 1154.792969 C 625.21875 1157.578125 624.113281 1160.246094 622.148438 1162.214844 C 620.179688 1164.183594 617.511719 1165.289062 614.726562 1165.289062 L 536.902344 1165.289062 C 534.121094 1165.289062 531.449219 1164.183594 529.484375 1162.214844 C 527.515625 1160.246094 526.410156 1157.578125 526.410156 1154.792969 L 526.410156 1131.269531 C 526.410156 1128.488281 527.515625 1125.820312 529.484375 1123.851562 C 531.449219 1121.882812 534.121094 1120.777344 536.902344 1120.777344 Z M 536.902344 1120.777344 "></path>
</clippath>
<clippath id="66f1ae34c3">
<path class="path-67" clip-rule="nonzero" d="M 473.613281 1189.695312 L 572.558594 1189.695312 L 572.558594 1233.925781 L 473.613281 1233.925781 Z M 473.613281 1189.695312 "></path>
</clippath>
<clippath id="074cc9ee8a">
<path class="path-68" clip-rule="nonzero" d="M 484.105469 1189.695312 L 561.929688 1189.695312 C 564.714844 1189.695312 567.382812 1190.800781 569.351562 1192.769531 C 571.316406 1194.738281 572.421875 1197.40625 572.421875 1200.1875 L 572.421875 1223.714844 C 572.421875 1226.496094 571.316406 1229.164062 569.351562 1231.132812 C 567.382812 1233.101562 564.714844 1234.207031 561.929688 1234.207031 L 484.105469 1234.207031 C 481.324219 1234.207031 478.652344 1233.101562 476.6875 1231.132812 C 474.71875 1229.164062 473.613281 1226.496094 473.613281 1223.714844 L 473.613281 1200.1875 C 473.613281 1197.40625 474.71875 1194.738281 476.6875 1192.769531 C 478.652344 1190.800781 481.324219 1189.695312 484.105469 1189.695312 Z M 484.105469 1189.695312 "></path>
</clippath>
<clippath id="8a23f58e8d">
<path class="path-69" clip-rule="nonzero" d="M 403.746094 378.628906 L 502.699219 378.628906 L 502.699219 440.097656 L 403.746094 440.097656 Z M 403.746094 378.628906 "></path>
</clippath>
<clippath id="e37f12a2a0">
<path class="path-70" clip-rule="nonzero" d="M 414.238281 378.628906 L 492.074219 378.628906 C 494.859375 378.628906 497.527344 379.734375 499.496094 381.703125 C 501.460938 383.667969 502.570312 386.339844 502.570312 389.121094 L 502.570312 429.824219 C 502.570312 432.609375 501.460938 435.277344 499.496094 437.246094 C 497.527344 439.214844 494.859375 440.320312 492.074219 440.320312 L 414.238281 440.320312 C 411.457031 440.320312 408.789062 439.214844 406.820312 437.246094 C 404.851562 435.277344 403.746094 432.609375 403.746094 429.824219 L 403.746094 389.121094 C 403.746094 386.339844 404.851562 383.667969 406.820312 381.703125 C 408.789062 379.734375 411.457031 378.628906 414.238281 378.628906 Z M 414.238281 378.628906 "></path>
</clippath>
<clippath id="862fb1123e">
<path class="path-71" clip-rule="nonzero" d="M 543.101562 378.628906 L 642 378.628906 L 642 440.097656 L 543.101562 440.097656 Z M 543.101562 378.628906 "></path>
</clippath>
<clippath id="e81affa522">
<path class="path-72" clip-rule="nonzero" d="M 553.597656 378.628906 L 631.429688 378.628906 C 634.214844 378.628906 636.882812 379.734375 638.851562 381.703125 C 640.820312 383.667969 641.925781 386.339844 641.925781 389.121094 L 641.925781 429.824219 C 641.925781 432.609375 640.820312 435.277344 638.851562 437.246094 C 636.882812 439.214844 634.214844 440.320312 631.429688 440.320312 L 553.597656 440.320312 C 550.8125 440.320312 548.144531 439.214844 546.175781 437.246094 C 544.207031 435.277344 543.101562 432.609375 543.101562 429.824219 L 543.101562 389.121094 C 543.101562 386.339844 544.207031 383.667969 546.175781 381.703125 C 548.144531 379.734375 550.8125 378.628906 553.597656 378.628906 Z M 553.597656 378.628906 "></path>
</clippath>
<clippath id="afe0574e64">
<path class="path-73" clip-rule="nonzero" d="M 702.457031 1165.027344 L 895.109375 1165.027344 L 895.109375 1225.746094 L 702.457031 1225.746094 Z M 702.457031 1165.027344 "></path>
</clippath>
<clippath id="1dc3b0608c">
<path class="path-74" clip-rule="nonzero" d="M 712.949219 1165.027344 L 884.964844 1165.027344 C 887.75 1165.027344 890.417969 1166.132812 892.386719 1168.101562 C 894.355469 1170.066406 895.460938 1172.738281 895.460938 1175.519531 L 895.460938 1214.996094 C 895.460938 1217.777344 894.355469 1220.445312 892.386719 1222.414062 C 890.417969 1224.382812 887.75 1225.488281 884.964844 1225.488281 L 712.949219 1225.488281 C 710.167969 1225.488281 707.496094 1224.382812 705.53125 1222.414062 C 703.5625 1220.445312 702.457031 1217.777344 702.457031 1214.996094 L 702.457031 1175.519531 C 702.457031 1172.738281 703.5625 1170.066406 705.53125 1168.101562 C 707.496094 1166.132812 710.167969 1165.027344 712.949219 1165.027344 Z M 712.949219 1165.027344 "></path>
</clippath>
</defs>
<g clip-path="url(#9a22791289)">
<g clip-path="url(#67f7715bec)">
<path class="path-75" d="M 13.994886 -0.00114089 L 117.816368 -0.00114089 C 121.526511 -0.00114089 125.085539 1.473537 127.71182 4.099818 C 130.338102 6.726099 131.812779 10.285127 131.812779 13.995271 L 131.812779 45.375162 C 131.812779 49.090517 130.338102 52.649545 127.71182 55.275826 C 125.085539 57.902107 121.526511 59.376785 117.816368 59.376785 L 13.994886 59.376785 C 10.284742 59.376785 6.725714 57.902107 4.099433 55.275826 C 1.473152 52.649545 -0.0015259 49.090517 -0.0015259 45.375162 L -0.0015259 13.995271 C -0.0015259 10.285127 1.473152 6.726099 4.099433 4.099818 C 6.725714 1.473537 10.284742 -0.00114089 13.994886 -0.00114089 Z M 13.994886 -0.00114089 " fill="none" stroke="#af8c53" stroke-linecap="butt" stroke-linejoin="miter" stroke-miterlimit="4" stroke-opacity="1" stroke-width="8" transform="matrix(0.749634, 0, 0, 0.749634, 691.028488, 200.465699)"></path>
</g>
</g>
<g clip-path="url(#d08a8eb06d)">
<g clip-path="url(#d61870c7b2)">
<path class="path-76" d="M 13.99493 -0.000640154 L 438.003892 -0.000640154 C 441.719247 -0.000640154 445.278275 1.474038 447.904556 4.100319 C 450.525627 6.7266 452.000304 10.285629 452.000304 13.995772 L 452.000304 69.048675 C 452.000304 72.764029 450.525627 76.323057 447.904556 78.949339 C 445.278275 81.570409 441.719247 83.045087 438.003892 83.045087 L 13.99493 83.045087 C 10.284787 83.045087 6.725759 81.570409 4.099477 78.949339 C 1.473196 76.323057 -0.00148193 72.764029 -0.00148193 69.048675 L -0.00148193 13.995772 C -0.00148193 10.285629 1.473196 6.7266 4.099477 4.100319 C 6.725759 1.474038 10.284787 -0.000640154 13.99493 -0.000640154 Z M 13.99493 -0.000640154 " fill="none" stroke="#af8c53" stroke-linecap="butt" stroke-linejoin="miter" stroke-miterlimit="4" stroke-opacity="1" stroke-width="8" transform="matrix(0.749634, 0, 0, 0.749634, 352.868298, 102.641105)"></path>
</g>
</g>
<g clip-path="url(#1a10c16704)">
<g clip-path="url(#d5e9183f82)">
<path class="path-77" d="M 13.99811 0.00259196 L 117.814382 0.00259196 C 121.524525 0.00259196 125.088764 1.47727 127.709834 4.09834 C 130.336116 6.724621 131.810793 10.283649 131.810793 13.999003 L 131.810793 45.378895 C 131.810793 49.089039 130.336116 52.648067 127.709834 55.274348 C 125.088764 57.900629 121.524525 59.375307 117.814382 59.375307 L 13.99811 59.375307 C 10.282756 59.375307 6.723728 57.900629 4.097447 55.274348 C 1.476377 52.648067 0.00169907 49.089039 0.00169907 45.378895 L 0.00169907 13.999003 C 0.00169907 10.283649 1.476377 6.724621 4.097447 4.09834 C 6.723728 1.47727 10.282756 0.00259196 13.99811 0.00259196 Z M 13.99811 0.00259196 " fill="none" stroke="#af8c53" stroke-linecap="butt" stroke-linejoin="miter" stroke-miterlimit="4" stroke-opacity="1" stroke-width="8" transform="matrix(0.749634, 0, 0, 0.749634, 273.737008, 199.595713)"></path>
</g>
</g>
<g clip-path="url(#b7efe928ad)">
<g clip-path="url(#1bd43073ab)">
<path class="path-78" d="M 13.995537 0.00259196 L 117.811808 0.00259196 C 121.527162 0.00259196 125.08619 1.47727 127.712472 4.09834 C 130.338753 6.724621 131.81343 10.283649 131.81343 13.999003 L 131.81343 45.378895 C 131.81343 49.089039 130.338753 52.648067 127.712472 55.274348 C 125.08619 57.900629 121.527162 59.375307 117.811808 59.375307 L 13.995537 59.375307 C 10.285393 59.375307 6.726366 57.900629 4.100084 55.274348 C 1.473803 52.648067 -0.000874675 49.089039 -0.000874675 45.378895 L -0.000874675 13.999003 C -0.000874675 10.283649 1.473803 6.724621 4.100084 4.09834 C 6.726366 1.47727 10.285393 0.00259196 13.995537 0.00259196 Z M 13.995537 0.00259196 " fill="none" stroke="#af8c53" stroke-linecap="butt" stroke-linejoin="miter" stroke-miterlimit="4" stroke-opacity="1" stroke-width="8" transform="matrix(0.749634, 0, 0, 0.749634, 412.727218, 199.595713)"></path>
</g>
</g>
<g clip-path="url(#b4fc85d8a6)">
<g clip-path="url(#c1abe1ade2)">
<path class="path-79" d="M 13.998123 0.00259196 L 117.814394 0.00259196 C 121.524537 0.00259196 125.088776 1.47727 127.709847 4.09834 C 130.336128 6.724621 131.810806 10.283649 131.810806 13.999003 L 131.810806 45.378895 C 131.810806 49.089039 130.336128 52.648067 127.709847 55.274348 C 125.088776 57.900629 121.524537 59.375307 117.814394 59.375307 L 13.998123 59.375307 C 10.282769 59.375307 6.723741 57.900629 4.097459 55.274348 C 1.476389 52.648067 0.00171126 49.089039 0.00171126 45.378895 L 0.00171126 13.999003 C 0.00171126 10.283649 1.476389 6.724621 4.097459 4.09834 C 6.723741 1.47727 10.282769 0.00259196 13.998123 0.00259196 Z M 13.998123 0.00259196 " fill="none" stroke="#af8c53" stroke-linecap="butt" stroke-linejoin="miter" stroke-miterlimit="4" stroke-opacity="1" stroke-width="8" transform="matrix(0.749634, 0, 0, 0.749634, 551.717467, 199.595713)"></path>
</g>
</g>
<g clip-path="url(#1d4deba3cc)">
<g clip-path="url(#0a1aacf259)">
<path class="path-80" d="M 14.001371 0.00221917 L 117.828057 0.00221917 C 121.543411 0.00221917 125.102439 1.476897 127.72872 4.097967 C 130.355001 6.724248 131.829679 10.288487 131.829679 13.99863 L 131.829679 68.295948 C 131.829679 72.011302 130.355001 75.57033 127.72872 78.196611 C 125.102439 80.822892 121.543411 82.29757 117.828057 82.29757 L 14.001371 82.29757 C 10.286017 82.29757 6.726989 80.822892 4.100708 78.196611 C 1.474427 75.57033 -0.000250557 72.011302 -0.000250557 68.295948 L -0.000250557 13.99863 C -0.000250557 10.288487 1.474427 6.724248 4.100708 4.097967 C 6.726989 1.476897 10.286017 0.00221917 14.001371 0.00221917 Z M 14.001371 0.00221917 " fill="none" stroke="#af8c53" stroke-linecap="butt" stroke-linejoin="miter" stroke-miterlimit="4" stroke-opacity="1" stroke-width="8" transform="matrix(0.749634, 0, 0, 0.749634, 265.121282, 378.627243)"></path>
</g>
</g>
<g clip-path="url(#7ed7a65b86)">
<g clip-path="url(#6e1e1cce57)">
<path class="path-81" d="M 13.996708 0.00188074 L 438.00567 0.00188074 C 441.715813 0.00188074 445.280052 1.476559 447.901123 4.097629 C 450.527404 6.72391 452.002082 10.282939 452.002082 13.998293 L 452.002082 69.051196 C 452.002082 72.761339 450.527404 76.320367 447.901123 78.946649 C 445.280052 81.57293 441.715813 83.047608 438.00567 83.047608 L 13.996708 83.047608 C 10.286564 83.047608 6.722325 81.57293 4.101255 78.946649 C 1.474973 76.320367 0.000295561 72.761339 0.000295561 69.051196 L 0.000295561 13.998293 C 0.000295561 10.282939 1.474973 6.72391 4.101255 4.097629 C 6.722325 1.476559 10.286564 0.00188074 13.996708 0.00188074 Z M 13.996708 0.00188074 " fill="none" stroke="#af8c53" stroke-linecap="butt" stroke-linejoin="miter" stroke-miterlimit="4" stroke-opacity="1" stroke-width="8" transform="matrix(0.749634, 0, 0, 0.749634, 353.234153, 282.006403)"></path>
</g>
</g>
<g clip-path="url(#e679f734e4)">
<g clip-path="url(#a0de882357)">
<path class="path-82" d="M 13.997102 0.00221917 L 117.829 0.00221917 C 121.544354 0.00221917 125.103381 1.476897 127.729662 4.097967 C 130.350732 6.724248 131.830621 10.288487 131.830621 13.99863 L 131.830621 68.295948 C 131.830621 72.011302 130.350732 75.57033 127.729662 78.196611 C 125.103381 80.822892 121.544354 82.29757 117.829 82.29757 L 13.997102 82.29757 C 10.286959 82.29757 6.727931 80.822892 4.10165 78.196611 C 1.475369 75.57033 0.00069168 72.011302 0.00069168 68.295948 L 0.00069168 13.99863 C 0.00069168 10.288487 1.475369 6.724248 4.10165 4.097967 C 6.727931 1.476897 10.286959 0.00221917 13.997102 0.00221917 Z M 13.997102 0.00221917 " fill="none" stroke="#af8c53" stroke-linecap="butt" stroke-linejoin="miter" stroke-miterlimit="4" stroke-opacity="1" stroke-width="8" transform="matrix(0.749634, 0, 0, 0.749634, 681.726044, 378.627243)"></path>
</g>
</g>
<g clip-path="url(#4d62c4f697)">
<g clip-path="url(#25ea5fac5f)">
<path class="path-83" d="M 13.997348 0.00176018 L 117.824035 0.00176018 C 121.534178 0.00176018 125.093206 1.476438 127.719487 4.097508 C 130.345768 6.723789 131.820446 10.288028 131.820446 13.998171 L 131.820446 68.691516 C 131.820446 72.401659 130.345768 75.960687 127.719487 78.586968 C 125.093206 81.213249 121.534178 82.687926 117.824035 82.687926 L 13.997348 82.687926 C 10.287205 82.687926 6.722967 81.213249 4.101897 78.586968 C 1.475616 75.960687 0.000937918 72.401659 0.000937918 68.691516 L 0.000937918 13.998171 C 0.000937918 10.288028 1.475616 6.723789 4.101897 4.097508 C 6.722967 1.476438 10.287205 0.00176018 13.997348 0.00176018 Z M 13.997348 0.00176018 " fill="none" stroke="#af8c53" stroke-linecap="butt" stroke-linejoin="miter" stroke-miterlimit="4" stroke-opacity="1" stroke-width="8" transform="matrix(0.749634, 0, 0, 0.749634, 265.124297, 474.678368)"></path>
</g>
</g>
<g clip-path="url(#eef3840864)">
<g clip-path="url(#074eae6ad9)">
<path class="path-84" d="M 13.999982 0.00176018 L 117.821458 0.00176018 C 121.536812 0.00176018 125.09584 1.476438 127.722121 4.097508 C 130.343191 6.723789 131.817869 10.288028 131.817869 13.998171 L 131.817869 68.691516 C 131.817869 72.401659 130.343191 75.960687 127.722121 78.586968 C 125.09584 81.213249 121.536812 82.687926 117.821458 82.687926 L 13.999982 82.687926 C 10.284628 82.687926 6.725601 81.213249 4.09932 78.586968 C 1.473039 75.960687 -0.00163902 72.401659 -0.00163902 68.691516 L -0.00163902 13.998171 C -0.00163902 10.288028 1.473039 6.723789 4.09932 4.097508 C 6.725601 1.476438 10.284628 0.00176018 13.999982 0.00176018 Z M 13.999982 0.00176018 " fill="none" stroke="#af8c53" stroke-linecap="butt" stroke-linejoin="miter" stroke-miterlimit="4" stroke-opacity="1" stroke-width="8" transform="matrix(0.749634, 0, 0, 0.749634, 404.11451, 474.678368)"></path>
</g>
</g>
<g clip-path="url(#d700b63ffc)">
<g clip-path="url(#9b67a45067)">
<path class="path-85" d="M 13.997421 0.00176018 L 117.824108 0.00176018 C 121.534251 0.00176018 125.093279 1.476438 127.71956 4.097508 C 130.345841 6.723789 131.820519 10.288028 131.820519 13.998171 L 131.820519 68.691516 C 131.820519 72.401659 130.345841 75.960687 127.71956 78.586968 C 125.093279 81.213249 121.534251 82.687926 117.824108 82.687926 L 13.997421 82.687926 C 10.287278 82.687926 6.72304 81.213249 4.10197 78.586968 C 1.475689 75.960687 0.00101091 72.401659 0.00101091 68.691516 L 0.00101091 13.998171 C 0.00101091 10.288028 1.475689 6.723789 4.10197 4.097508 C 6.72304 1.476438 10.287278 0.00176018 13.997421 0.00176018 Z M 13.997421 0.00176018 " fill="none" stroke="#af8c53" stroke-linecap="butt" stroke-linejoin="miter" stroke-miterlimit="4" stroke-opacity="1" stroke-width="8" transform="matrix(0.749634, 0, 0, 0.749634, 543.104711, 474.678368)"></path>
</g>
</g>
<g clip-path="url(#13f3da0b9a)">
<g clip-path="url(#7cd2963821)">
<path class="path-86" d="M 14.000103 0.00176018 L 117.821579 0.00176018 C 121.536933 0.00176018 125.095961 1.476438 127.722242 4.097508 C 130.343312 6.723789 131.81799 10.288028 131.81799 13.998171 L 131.81799 68.691516 C 131.81799 72.401659 130.343312 75.960687 127.722242 78.586968 C 125.095961 81.213249 121.536933 82.687926 117.821579 82.687926 L 14.000103 82.687926 C 10.284749 82.687926 6.725722 81.213249 4.099441 78.586968 C 1.47316 75.960687 -0.00151803 72.401659 -0.00151803 68.691516 L -0.00151803 13.998171 C -0.00151803 10.288028 1.47316 6.723789 4.099441 4.097508 C 6.725722 1.476438 10.284749 0.00176018 14.000103 0.00176018 Z M 14.000103 0.00176018 " fill="none" stroke="#af8c53" stroke-linecap="butt" stroke-linejoin="miter" stroke-miterlimit="4" stroke-opacity="1" stroke-width="8" transform="matrix(0.749634, 0, 0, 0.749634, 682.094888, 474.678368)"></path>
</g>
</g>
<g clip-path="url(#e2b6bd0477)">
<g clip-path="url(#b8be2a9451)">
<path class="path-87" d="M 13.997444 0.00254231 L 438.006406 0.00254231 C 441.716549 0.00254231 445.275577 1.47722 447.901859 4.098291 C 450.52814 6.724572 452.002818 10.2836 452.002818 13.998955 L 452.002818 69.051857 C 452.002818 72.762001 450.52814 76.321029 447.901859 78.94731 C 445.275577 81.573592 441.716549 83.04827 438.006406 83.04827 L 13.997444 83.04827 C 10.2873 83.04827 6.723061 81.573592 4.101991 78.94731 C 1.475709 76.321029 0.00103154 72.762001 0.00103154 69.051857 L 0.00103154 13.998955 C 0.00103154 10.2836 1.475709 6.724572 4.101991 4.098291 C 6.723061 1.47722 10.2873 0.00254231 13.997444 0.00254231 Z M 13.997444 0.00254231 " fill="none" stroke="#af8c53" stroke-linecap="butt" stroke-linejoin="miter" stroke-miterlimit="4" stroke-opacity="1" stroke-width="8" transform="matrix(0.749634, 0, 0, 0.749634, 355.448445, 579.919969)"></path>
</g>
</g>
<g clip-path="url(#1c96cf656f)">
<g clip-path="url(#ae775c3e18)">
<path class="path-88" d="M 13.999507 -0.00224992 L 237.285534 -0.00224992 C 240.995677 -0.00224992 244.559916 1.472428 247.180987 4.098709 C 249.807268 6.724991 251.281946 10.284019 251.281946 13.999373 L 251.281946 69.047065 C 251.281946 72.762419 249.807268 76.321448 247.180987 78.947729 C 244.559916 81.57401 240.995677 83.048688 237.285534 83.048688 L 13.999507 83.048688 C 10.284152 83.048688 6.725124 81.57401 4.098843 78.947729 C 1.472561 76.321448 -0.00211661 72.762419 -0.00211661 69.047065 L -0.00211661 13.999373 C -0.00211661 10.284019 1.472561 6.724991 4.098843 4.098709 C 6.725124 1.472428 10.284152 -0.00224992 13.999507 -0.00224992 Z M 13.999507 -0.00224992 " fill="none" stroke="#af8c53" stroke-linecap="butt" stroke-linejoin="miter" stroke-miterlimit="4" stroke-opacity="1" stroke-width="8" transform="matrix(0.749634, 0, 0, 0.749634, 184.90393, 657.704812)"></path>
</g>
</g>
<g clip-path="url(#d6c6d015e7)">
<g clip-path="url(#9c8c8427c4)">
<path class="path-89" d="M 13.998656 -0.000709493 L 117.814927 -0.000709493 C 121.525071 -0.000709493 125.089309 1.473968 127.71038 4.100249 C 130.336661 6.726531 131.811339 10.285559 131.811339 13.995702 L 131.811339 45.375594 C 131.811339 49.090948 130.336661 52.649976 127.71038 55.276257 C 125.089309 57.902538 121.525071 59.377216 117.814927 59.377216 L 13.998656 59.377216 C 10.283302 59.377216 6.724274 57.902538 4.097993 55.276257 C 1.476922 52.649976 0.00224445 49.090948 0.00224445 45.375594 L 0.00224445 13.995702 C 0.00224445 10.285559 1.476922 6.726531 4.097993 4.100249 C 6.724274 1.473968 10.283302 -0.000709493 13.998656 -0.000709493 Z M 13.998656 -0.000709493 " fill="none" stroke="#af8c53" stroke-linecap="butt" stroke-linejoin="miter" stroke-miterlimit="4" stroke-opacity="1" stroke-width="8" transform="matrix(0.749634, 0, 0, 0.749634, 223.748317, 784.418501)"></path>
</g>
</g>
<g clip-path="url(#c795d1cdcd)">
<g clip-path="url(#1b174bfaa9)">
<path class="path-90" d="M 13.999156 -0.00163835 L 117.815427 -0.00163835 C 121.52557 -0.00163835 125.084598 1.473039 127.71088 4.099321 C 130.337161 6.725602 131.811839 10.28463 131.811839 13.994773 L 131.811839 45.379876 C 131.811839 49.090019 130.337161 52.649047 127.71088 55.275328 C 125.084598 57.90161 121.52557 59.376287 117.815427 59.376287 L 13.999156 59.376287 C 10.283802 59.376287 6.724774 57.90161 4.098492 55.275328 C 1.472211 52.649047 -0.00246655 49.090019 -0.00246655 45.379876 L -0.00246655 13.994773 C -0.00246655 10.28463 1.472211 6.725602 4.098492 4.099321 C 6.724774 1.473039 10.283802 -0.00163835 13.999156 -0.00163835 Z M 13.999156 -0.00163835 " fill="none" stroke="#af8c53" stroke-linecap="butt" stroke-linejoin="miter" stroke-miterlimit="4" stroke-opacity="1" stroke-width="8" transform="matrix(0.749634, 0, 0, 0.749634, 222.622943, 844.376228)"></path>
</g>
</g>
<g clip-path="url(#f51ba2b2da)">
<g clip-path="url(#d553057496)">
<path class="path-91" d="M 13.999156 -0.0022594 L 117.815427 -0.0022594 C 121.52557 -0.0022594 125.084598 1.472418 127.71088 4.0987 C 130.337161 6.724981 131.811839 10.284009 131.811839 13.999363 L 131.811839 45.379255 C 131.811839 49.089398 130.337161 52.648426 127.71088 55.274707 C 125.084598 57.900989 121.52557 59.375666 117.815427 59.375666 L 13.999156 59.375666 C 10.283802 59.375666 6.724774 57.900989 4.098492 55.274707 C 1.472211 52.648426 -0.00246655 49.089398 -0.00246655 45.379255 L -0.00246655 13.999363 C -0.00246655 10.284009 1.472211 6.724981 4.098492 4.0987 C 6.724774 1.472418 10.283802 -0.0022594 13.999156 -0.0022594 Z M 13.999156 -0.0022594 " fill="none" stroke="#af8c53" stroke-linecap="butt" stroke-linejoin="miter" stroke-miterlimit="4" stroke-opacity="1" stroke-width="8" transform="matrix(0.749634, 0, 0, 0.749634, 222.622943, 904.904037)"></path>
</g>
</g>
<g clip-path="url(#afa3b831a6)">
<g clip-path="url(#ce3ea74c54)">
<path class="path-92" d="M 13.999156 0.00226643 L 117.815427 0.00226643 C 121.52557 0.00226643 125.084598 1.476944 127.71088 4.098015 C 130.337161 6.724296 131.811839 10.283324 131.811839 13.998678 L 131.811839 45.37857 C 131.811839 49.088713 130.337161 52.647741 127.71088 55.274022 C 125.084598 57.900303 121.52557 59.374981 117.815427 59.374981 L 13.999156 59.374981 C 10.283802 59.374981 6.724774 57.900303 4.098492 55.274022 C 1.472211 52.647741 -0.00246655 49.088713 -0.00246655 45.37857 L -0.00246655 13.998678 C -0.00246655 10.283324 1.472211 6.724296 4.098492 4.098015 C 6.724774 1.476944 10.283802 0.00226643 13.999156 0.00226643 Z M 13.999156 0.00226643 " fill="none" stroke="#af8c53" stroke-linecap="butt" stroke-linejoin="miter" stroke-miterlimit="4" stroke-opacity="1" stroke-width="8" transform="matrix(0.749634, 0, 0, 0.749634, 222.622943, 965.431895)"></path>
</g>
</g>
<g clip-path="url(#ac24cd4dd3)">
<g clip-path="url(#df25a6f270)">
<path class="path-93" d="M 13.999156 0.00180539 L 117.815427 0.00180539 C 121.52557 0.00180539 125.084598 1.476483 127.71088 4.097553 C 130.337161 6.723835 131.811839 10.282863 131.811839 13.998217 L 131.811839 45.378109 C 131.811839 49.088252 130.337161 52.652491 127.71088 55.273561 C 125.084598 57.899842 121.52557 59.37452 117.815427 59.37452 L 13.999156 59.37452 C 10.283802 59.37452 6.724774 57.899842 4.098492 55.273561 C 1.472211 52.652491 -0.00246655 49.088252 -0.00246655 45.378109 L -0.00246655 13.998217 C -0.00246655 10.282863 1.472211 6.723835 4.098492 4.097553 C 6.724774 1.476483 10.283802 0.00180539 13.999156 0.00180539 Z M 13.999156 0.00180539 " fill="none" stroke="#af8c53" stroke-linecap="butt" stroke-linejoin="miter" stroke-miterlimit="4" stroke-opacity="1" stroke-width="8" transform="matrix(0.749634, 0, 0, 0.749634, 222.622943, 1025.959584)"></path>
</g>
</g>
<g clip-path="url(#23e09d9aa7)">
<g clip-path="url(#c1180d3ba5)">
<path class="path-94" d="M 13.999156 0.00105634 L 117.815427 0.00105634 C 121.52557 0.00105634 125.084598 1.475734 127.71088 4.102015 C 130.337161 6.723086 131.811839 10.287324 131.811839 13.997468 L 131.811839 45.37736 C 131.811839 49.087503 130.337161 52.651742 127.71088 55.272812 C 125.084598 57.899093 121.52557 59.373771 117.815427 59.373771 L 13.999156 59.373771 C 10.283802 59.373771 6.724774 57.899093 4.098492 55.272812 C 1.472211 52.651742 -0.00246655 49.087503 -0.00246655 45.37736 L -0.00246655 13.997468 C -0.00246655 10.287324 1.472211 6.723086 4.098492 4.102015 C 6.724774 1.475734 10.283802 0.00105634 13.999156 0.00105634 Z M 13.999156 0.00105634 " fill="none" stroke="#af8c53" stroke-linecap="butt" stroke-linejoin="miter" stroke-miterlimit="4" stroke-opacity="1" stroke-width="8" transform="matrix(0.749634, 0, 0, 0.749634, 222.622943, 1086.487489)"></path>
</g>
</g>
<g clip-path="url(#f4945df0f0)">
<g clip-path="url(#8e03f9a5ba)">
<path class="path-95" d="M 14.000763 -0.000709493 L 243.466859 -0.000709493 C 247.177002 -0.000709493 250.74124 1.473968 253.367522 4.100249 C 255.988592 6.72653 257.463269 10.285558 257.463269 14.000912 L 257.463269 66.656805 C 257.463269 70.372159 255.988592 73.931187 253.367522 76.557468 C 250.74124 79.183749 247.177002 80.658426 243.466859 80.658426 L 14.000763 80.658426 C 10.285409 80.658426 6.726381 79.183749 4.1001 76.557468 C 1.473819 73.931187 -0.000858803 70.372159 -0.000858803 66.656805 L -0.000858803 14.000912 C -0.000858803 10.285558 1.473819 6.72653 4.1001 4.100249 C 6.726381 1.473968 10.285409 -0.000709493 14.000763 -0.000709493 Z M 14.000763 -0.000709493 " fill="none" stroke="#af8c53" stroke-linecap="butt" stroke-linejoin="miter" stroke-miterlimit="4" stroke-opacity="1" stroke-width="8" transform="matrix(0.749634, 0, 0, 0.749634, 701.813144, 784.418501)"></path>
</g>
</g>
<g clip-path="url(#dae98df4bd)">
<g clip-path="url(#5d7eb4dfb1)">
<path class="path-96" d="M 13.996318 0.00138196 L 197.664044 0.00138196 C 201.379399 0.00138196 204.938427 1.47606 207.564708 4.102341 C 210.185778 6.723411 211.660456 10.28765 211.660456 13.997793 L 211.660456 55.783804 C 211.660456 59.493947 210.185778 63.058186 207.564708 65.679256 C 204.938427 68.305537 201.379399 69.780215 197.664044 69.780215 L 13.996318 69.780215 C 10.286174 69.780215 6.727146 68.305537 4.100865 65.679256 C 1.474584 63.058186 -0.000093705 59.493947 -0.000093705 55.783804 L -0.000093705 13.997793 C -0.000093705 10.28765 1.474584 6.723411 4.100865 4.102341 C 6.727146 1.47606 10.286174 0.00138196 13.996318 0.00138196 Z M 13.996318 0.00138196 " fill="none" stroke="#af8c53" stroke-linecap="butt" stroke-linejoin="miter" stroke-miterlimit="4" stroke-opacity="1" stroke-width="8" transform="matrix(0.749634, 0, 0, 0.749634, 192.695383, 1165.026308)"></path>
</g>
</g>
<g clip-path="url(#123706d206)">
<g clip-path="url(#48e892e239)">
<path class="path-97" d="M 14.000763 -0.00211053 L 243.466859 -0.00211053 C 247.177002 -0.00211053 250.74124 1.472567 253.367522 4.098848 C 255.988592 6.725129 257.463269 10.284157 257.463269 13.999511 L 257.463269 66.655404 C 257.463269 70.370758 255.988592 73.929785 253.367522 76.556067 C 250.74124 79.182348 247.177002 80.657025 243.466859 80.657025 L 14.000763 80.657025 C 10.285409 80.657025 6.726381 79.182348 4.1001 76.556067 C 1.473819 73.929785 -0.000858803 70.370758 -0.000858803 66.655404 L -0.000858803 13.999511 C -0.000858803 10.284157 1.473819 6.725129 4.1001 4.098848 C 6.726381 1.472567 10.285409 -0.00211053 14.000763 -0.00211053 Z M 14.000763 -0.00211053 " fill="none" stroke="#af8c53" stroke-linecap="butt" stroke-linejoin="miter" stroke-miterlimit="4" stroke-opacity="1" stroke-width="8" transform="matrix(0.749634, 0, 0, 0.749634, 701.813144, 879.349238)"></path>
</g>
</g>
<g clip-path="url(#a6f732f9f0)">
<g clip-path="url(#63d9ea8b05)">
<path class="path-98" d="M 14.000763 0.00185931 L 243.466859 0.00185931 C 247.177002 0.00185931 250.74124 1.476537 253.367522 4.102818 C 255.988592 6.723888 257.463269 10.288127 257.463269 13.99827 L 257.463269 66.654163 C 257.463269 70.369517 255.988592 73.928544 253.367522 76.554826 C 250.74124 79.181107 247.177002 80.655784 243.466859 80.655784 L 14.000763 80.655784 C 10.285409 80.655784 6.726381 79.181107 4.1001 76.554826 C 1.473819 73.928544 -0.000858803 70.369517 -0.000858803 66.654163 L -0.000858803 13.99827 C -0.000858803 10.288127 1.473819 6.723888 4.1001 4.102818 C 6.726381 1.476537 10.285409 0.00185931 14.000763 0.00185931 Z M 14.000763 0.00185931 " fill="none" stroke="#af8c53" stroke-linecap="butt" stroke-linejoin="miter" stroke-miterlimit="4" stroke-opacity="1" stroke-width="8" transform="matrix(0.749634, 0, 0, 0.749634, 701.813144, 974.279856)"></path>
</g>
</g>
<g clip-path="url(#36ff67490d)">
<g clip-path="url(#bb93927c06)">
<path class="path-99" d="M 14.000763 0.00036227 L 243.466859 0.00036227 C 247.177002 0.00036227 250.74124 1.47504 253.367522 4.101321 C 255.988592 6.727602 257.463269 10.28663 257.463269 14.001984 L 257.463269 66.657877 C 257.463269 70.36802 255.988592 73.932258 253.367522 76.553328 C 250.74124 79.17961 247.177002 80.654287 243.466859 80.654287 L 14.000763 80.654287 C 10.285409 80.654287 6.726381 79.17961 4.1001 76.553328 C 1.473819 73.932258 -0.000858803 70.36802 -0.000858803 66.657877 L -0.000858803 14.001984 C -0.000858803 10.28663 1.473819 6.727602 4.1001 4.101321 C 6.726381 1.47504 10.285409 0.00036227 14.000763 0.00036227 Z M 14.000763 0.00036227 " fill="none" stroke="#af8c53" stroke-linecap="butt" stroke-linejoin="miter" stroke-miterlimit="4" stroke-opacity="1" stroke-width="8" transform="matrix(0.749634, 0, 0, 0.749634, 701.813144, 1069.210666)"></path>
</g>
</g>
<g clip-path="url(#3f97901f02)">
<g clip-path="url(#ddb0c4dc29)">
<path class="path-100" d="M 13.995264 -0.000400635 L 237.286502 -0.000400635 C 240.996645 -0.000400635 244.555674 1.474277 247.181955 4.100559 C 249.808236 6.72684 251.282914 10.285868 251.282914 13.996012 L 251.282914 69.048914 C 251.282914 72.764269 249.808236 76.323297 247.181955 78.949578 C 244.555674 81.570649 240.996645 83.045327 237.286502 83.045327 L 13.995264 83.045327 C 10.28512 83.045327 6.726092 81.570649 4.099811 78.949578 C 1.47353 76.323297 -0.00114833 72.764269 -0.00114833 69.048914 L -0.00114833 13.996012 C -0.00114833 10.285868 1.47353 6.72684 4.099811 4.100559 C 6.726092 1.474277 10.28512 -0.000400635 13.995264 -0.000400635 Z M 13.995264 -0.000400635 " fill="none" stroke="#af8c53" stroke-linecap="butt" stroke-linejoin="miter" stroke-miterlimit="4" stroke-opacity="1" stroke-width="8" transform="matrix(0.749634, 0, 0, 0.749634, 637.321173, 656.879207)"></path>
</g>
</g>
<g clip-path="url(#6015bcf28a)">
<g clip-path="url(#1ad0e63e8f)">
<path class="path-101" d="M 13.999113 -0.0018033 L 243.465209 -0.0018033 C 247.180563 -0.0018033 250.739591 1.472874 253.365872 4.099155 C 255.992153 6.725436 257.466831 10.284464 257.466831 13.999818 L 257.466831 66.655711 C 257.466831 70.371065 255.992153 73.930093 253.365872 76.556374 C 250.739591 79.182655 247.180563 80.657332 243.465209 80.657332 L 13.999113 80.657332 C 10.28897 80.657332 6.724731 79.182655 4.09845 76.556374 C 1.47738 73.930093 -0.00250829 70.371065 -0.00250829 66.655711 L -0.00250829 13.999818 C -0.00250829 10.284464 1.47738 6.725436 4.09845 4.099155 C 6.724731 1.472874 10.28897 -0.0018033 13.999113 -0.0018033 Z M 13.999113 -0.0018033 " fill="none" stroke="#af8c53" stroke-linecap="butt" stroke-linejoin="miter" stroke-miterlimit="4" stroke-opacity="1" stroke-width="8" transform="matrix(0.749634, 0, 0, 0.749634, 428.365162, 783.911508)"></path>
</g>
</g>
<g clip-path="url(#c39d0a16e5)">
<g clip-path="url(#c001306472)">
<path class="path-102" d="M 13.998394 0.00202079 L 117.814665 0.00202079 C 121.524809 0.00202079 125.089048 1.476699 127.710118 4.097769 C 130.336399 6.72405 131.811077 10.283078 131.811077 13.998432 L 131.811077 45.378324 C 131.811077 49.088467 130.336399 52.652706 127.710118 55.273777 C 125.089048 57.900058 121.524809 59.374736 117.814665 59.374736 L 13.998394 59.374736 C 10.28304 59.374736 6.724012 57.900058 4.097731 55.273777 C 1.47666 52.652706 0.00198255 49.088467 0.00198255 45.378324 L 0.00198255 13.998432 C 0.00198255 10.283078 1.47666 6.72405 4.097731 4.097769 C 6.724012 1.476699 10.28304 0.00202079 13.998394 0.00202079 Z M 13.998394 0.00202079 " fill="none" stroke="#af8c53" stroke-linecap="butt" stroke-linejoin="miter" stroke-miterlimit="4" stroke-opacity="1" stroke-width="8" transform="matrix(0.749634, 0, 0, 0.749634, 408.107889, 866.635204)"></path>
</g>
</g>
<g clip-path="url(#e106487f5b)">
<g clip-path="url(#c5f674a965)">
<path class="path-103" d="M 13.996701 -0.00148202 L 117.812972 -0.00148202 C 121.528326 -0.00148202 125.087354 1.473196 127.713635 4.099477 C 130.334706 6.725758 131.809384 10.284786 131.809384 13.994929 L 131.809384 45.380032 C 131.809384 49.090176 130.334706 52.649203 127.713635 55.275485 C 125.087354 57.901766 121.528326 59.376444 117.812972 59.376444 L 13.996701 59.376444 C 10.286557 59.376444 6.722319 57.901766 4.101248 55.275485 C 1.474967 52.649203 0.000289278 49.090176 0.000289278 45.380032 L 0.000289278 13.994929 C 0.000289278 10.284786 1.474967 6.725758 4.101248 4.099477 C 6.722319 1.473196 10.286557 -0.00148202 13.996701 -0.00148202 Z M 13.996701 -0.00148202 " fill="none" stroke="#af8c53" stroke-linecap="butt" stroke-linejoin="miter" stroke-miterlimit="4" stroke-opacity="1" stroke-width="8" transform="matrix(0.749634, 0, 0, 0.749634, 526.409939, 865.063611)"></path>
</g>
</g>
<g clip-path="url(#5d416db698)">
<g clip-path="url(#22fb22e298)">
<path class="path-104" d="M 13.997004 -0.00117678 L 117.813276 -0.00117678 C 121.52863 -0.00117678 125.087658 1.473501 127.713939 4.099782 C 130.335009 6.726063 131.809687 10.285091 131.809687 13.995235 L 131.809687 45.375127 C 131.809687 49.090481 130.335009 52.649509 127.713939 55.27579 C 125.087658 57.902071 121.52863 59.376749 117.813276 59.376749 L 13.997004 59.376749 C 10.286861 59.376749 6.722622 57.902071 4.101552 55.27579 C 1.475271 52.649509 0.000592821 49.090481 0.000592821 45.375127 L 0.000592821 13.995235 C 0.000592821 10.285091 1.475271 6.726063 4.101552 4.099782 C 6.722622 1.473501 10.286861 -0.00117678 13.997004 -0.00117678 Z M 13.997004 -0.00117678 " fill="none" stroke="#af8c53" stroke-linecap="butt" stroke-linejoin="miter" stroke-miterlimit="4" stroke-opacity="1" stroke-width="8" transform="matrix(0.749634, 0, 0, 0.749634, 473.612837, 933.641507)"></path>
</g>
</g>
<g clip-path="url(#a4534aa5ef)">
<g clip-path="url(#7479728425)">
<path class="path-105" d="M 13.999113 -0.00187815 L 243.465209 -0.00187815 C 247.180563 -0.00187815 250.739591 1.4728 253.365872 4.099081 C 255.992153 6.725362 257.466831 10.284389 257.466831 13.999743 L 257.466831 66.655636 C 257.466831 70.37099 255.992153 73.930018 253.365872 76.556299 C 250.739591 79.18258 247.180563 80.657258 243.465209 80.657258 L 13.999113 80.657258 C 10.28897 80.657258 6.724731 79.18258 4.09845 76.556299 C 1.47738 73.930018 -0.00250829 70.37099 -0.00250829 66.655636 L -0.00250829 13.999743 C -0.00250829 10.284389 1.47738 6.725362 4.09845 4.099081 C 6.724731 1.4728 10.28897 -0.00187815 13.999113 -0.00187815 Z M 13.999113 -0.00187815 " fill="none" stroke="#af8c53" stroke-linecap="butt" stroke-linejoin="miter" stroke-miterlimit="4" stroke-opacity="1" stroke-width="8" transform="matrix(0.749634, 0, 0, 0.749634, 428.365162, 1039.966252)"></path>
</g>
</g>
<g clip-path="url(#d14b3c51d6)">
<g clip-path="url(#fbf1008f41)">
<path class="path-106" d="M 13.998394 -0.000885441 L 117.814665 -0.000885441 C 121.524809 -0.000885441 125.089048 1.473792 127.710118 4.100074 C 130.336399 6.726355 131.811077 10.285383 131.811077 13.995526 L 131.811077 45.375418 C 131.811077 49.090772 130.336399 52.6498 127.710118 55.276081 C 125.089048 57.902362 121.524809 59.37704 117.814665 59.37704 L 13.998394 59.37704 C 10.28304 59.37704 6.724012 57.902362 4.097731 55.276081 C 1.47666 52.6498 0.00198255 49.090772 0.00198255 45.375418 L 0.00198255 13.995526 C 0.00198255 10.285383 1.47666 6.726355 4.097731 4.100074 C 6.724012 1.473792 10.28304 -0.000885441 13.998394 -0.000885441 Z M 13.998394 -0.000885441 " fill="none" stroke="#af8c53" stroke-linecap="butt" stroke-linejoin="miter" stroke-miterlimit="4" stroke-opacity="1" stroke-width="8" transform="matrix(0.749634, 0, 0, 0.749634, 408.107889, 1120.508476)"></path>
</g>
</g>
<g clip-path="url(#3a8501e44c)">
<g clip-path="url(#6fc7e78761)">
<path class="path-107" d="M 13.996701 -0.000407036 L 117.812972 -0.000407036 C 121.528326 -0.000407036 125.087354 1.474271 127.713635 4.100552 C 130.334706 6.726833 131.809384 10.285861 131.809384 13.996004 L 131.809384 45.375896 C 131.809384 49.09125 130.334706 52.650278 127.713635 55.27656 C 125.087354 57.902841 121.528326 59.377519 117.812972 59.377519 L 13.996701 59.377519 C 10.286557 59.377519 6.722319 57.902841 4.101248 55.27656 C 1.474967 52.650278 0.000289278 49.09125 0.000289278 45.375896 L 0.000289278 13.996004 C 0.000289278 10.285861 1.474967 6.726833 4.101248 4.100552 C 6.722319 1.474271 10.286557 -0.000407036 13.996701 -0.000407036 Z M 13.996701 -0.000407036 " fill="none" stroke="#af8c53" stroke-linecap="butt" stroke-linejoin="miter" stroke-miterlimit="4" stroke-opacity="1" stroke-width="8" transform="matrix(0.749634, 0, 0, 0.749634, 526.409939, 1120.777649)"></path>
</g>
</g>
<g clip-path="url(#66f1ae34c3)">
<g clip-path="url(#074cc9ee8a)">
<path class="path-108" d="M 13.997004 -0.00131563 L 117.813276 -0.00131563 C 121.52863 -0.00131563 125.087658 1.473362 127.713939 4.099643 C 130.335009 6.725925 131.809687 10.284952 131.809687 13.995096 L 131.809687 45.380199 C 131.809687 49.090342 130.335009 52.64937 127.713939 55.275651 C 125.087658 57.901932 121.52863 59.37661 117.813276 59.37661 L 13.997004 59.37661 C 10.286861 59.37661 6.722622 57.901932 4.101552 55.275651 C 1.475271 52.64937 0.000592821 49.090342 0.000592821 45.380199 L 0.000592821 13.995096 C 0.000592821 10.284952 1.475271 6.725925 4.101552 4.099643 C 6.722622 1.473362 10.286861 -0.00131563 13.997004 -0.00131563 Z M 13.997004 -0.00131563 " fill="none" stroke="#af8c53" stroke-linecap="butt" stroke-linejoin="miter" stroke-miterlimit="4" stroke-opacity="1" stroke-width="8" transform="matrix(0.749634, 0, 0, 0.749634, 473.612837, 1189.696299)"></path>
</g>
</g>
<path class="path-109" d="M 401.654393 -0.00152243 L 401.654393 15.599839 C 401.654393 24.213416 394.67182 31.195989 386.058243 31.195989 L 26.742327 31.195989 C 13.079412 31.195989 2.00109 42.27431 2.00109 55.942436 C 2.00109 69.610563 13.079412 80.688884 26.742327 80.688884 L 68.570024 80.688884 " fill="none" stroke="#af8c53" stroke-linecap="butt" stroke-linejoin="miter" stroke-miterlimit="4" stroke-opacity="1" stroke-width="4" transform="matrix(0.749634, 0, 0, 0.749634, 221.195227, 164.907391)"></path>
<path class="path-110" d="M 60.57133 74.685955 L 68.570024 80.688884 L 60.57133 86.686601 " fill="none" stroke="#af8c53" stroke-linecap="round" stroke-linejoin="round" stroke-miterlimit="4" stroke-opacity="1" stroke-width="4" transform="matrix(0.749634, 0, 0, 0.749634, 221.195227, 164.907391)"></path>
<path class="path-111" d="M 0.000152258 2.001735 L 51.572186 2.001735 " fill="none" stroke="#af8c53" stroke-linecap="butt" stroke-linejoin="miter" stroke-miterlimit="4" stroke-opacity="1" stroke-width="4" transform="matrix(0.749634, 0, 0, 0.749634, 372.925667, 223.893962)"></path>
<path class="path-112" d="M 43.573493 -4.001194 L 51.572186 2.001735 L 43.573493 7.999453 " fill="none" stroke="#af8c53" stroke-linecap="round" stroke-linejoin="round" stroke-miterlimit="4" stroke-opacity="1" stroke-width="4" transform="matrix(0.749634, 0, 0, 0.749634, 372.925667, 223.893962)"></path>
<path class="path-113" d="M -0.00242148 2.001735 L 51.574824 2.001735 " fill="none" stroke="#af8c53" stroke-linecap="butt" stroke-linejoin="miter" stroke-miterlimit="4" stroke-opacity="1" stroke-width="4" transform="matrix(0.749634, 0, 0, 0.749634, 511.915878, 223.893962)"></path>
<path class="path-114" d="M 43.57613 -4.001194 L 51.574824 2.001735 L 43.57613 7.999453 " fill="none" stroke="#af8c53" stroke-linecap="round" stroke-linejoin="round" stroke-miterlimit="4" stroke-opacity="1" stroke-width="4" transform="matrix(0.749634, 0, 0, 0.749634, 511.915878, 223.893962)"></path>
<path class="path-115" d="M 0.00215303 2.000588 L 50.28189 2.001892 " fill="none" stroke="#af8c53" stroke-linecap="butt" stroke-linejoin="miter" stroke-miterlimit="4" stroke-opacity="1" stroke-width="4" transform="matrix(0.749634, 0.0000582533, -0.0000582533, 0.749634, 651.873503, 223.890916)"></path>
<path class="path-116" d="M 42.28273 -4.000415 L 50.28189 2.001892 L 42.283663 8.000231 " fill="none" stroke="#af8c53" stroke-linecap="round" stroke-linejoin="round" stroke-miterlimit="4" stroke-opacity="1" stroke-width="4" transform="matrix(0.749634, 0.0000582533, -0.0000582533, 0.749634, 651.873503, 223.890916)"></path>
<path class="path-117" d="M 358.492932 2.001735 L 375.636712 2.001735 C 385.104872 2.001735 392.780492 9.677354 392.780492 19.140304 L 392.780492 28.472982 C 392.780492 43.094699 380.92575 54.94944 366.304034 54.94944 L 12.287578 54.94944 C 6.607724 54.94944 2.00131 59.550643 2.00131 65.235708 L 2.00131 75.521977 " fill="none" stroke="#af8c53" stroke-linecap="butt" stroke-linejoin="miter" stroke-miterlimit="4" stroke-opacity="1" stroke-width="4" transform="matrix(0.749634, 0, 0, 0.749634, 521.156, 223.893962)"></path>
<path class="path-118" d="M 7.999028 67.523283 L 2.00131 75.521977 L -4.001619 67.523283 " fill="none" stroke="#af8c53" stroke-linecap="round" stroke-linejoin="round" stroke-miterlimit="4" stroke-opacity="1" stroke-width="4" transform="matrix(0.749634, 0, 0, 0.749634, 521.156, 223.893962)"></path>
<path class="path-119" d="M 0.00259163 2.000941 L 556.239606 2.002416 " fill="none" stroke="#af8c53" stroke-linecap="butt" stroke-linejoin="miter" stroke-miterlimit="4" stroke-opacity="1" stroke-width="4" transform="matrix(0.749624, -0.00385039, 0.00385039, 0.749624, 314.162228, 352.855525)"></path>
<path class="path-120" d="M 0.00170983 2.001951 L 35.23765 2.001951 " fill="none" stroke="#af8c53" stroke-linecap="butt" stroke-linejoin="miter" stroke-miterlimit="4" stroke-opacity="1" stroke-width="4" transform="matrix(0.00000000130836, 0.749634, -0.749634, 0.00000000130836, 315.6687, 352.213562)"></path>
<path class="path-121" d="M 0.000506585 2.002175 L 38.092006 2.002175 " fill="none" stroke="#af8c53" stroke-linecap="butt" stroke-linejoin="miter" stroke-miterlimit="4" stroke-opacity="1" stroke-width="4" transform="matrix(0, -0.749634, 0.749634, 0, 729.63582, 378.621474)"></path>
<path class="path-122" d="M 0.00193571 1.99808 L 35.237875 1.99808 " fill="none" stroke="#af8c53" stroke-linecap="butt" stroke-linejoin="miter" stroke-miterlimit="4" stroke-opacity="1" stroke-width="4" transform="matrix(0, -0.749634, 0.749634, 0, 590.650609, 378.626451)"></path>
<path class="path-123" d="M -0.00255389 2.000006 L 33.805606 2.000006 " fill="none" stroke="#af8c53" stroke-linecap="butt" stroke-linejoin="miter" stroke-miterlimit="4" stroke-opacity="1" stroke-width="4" transform="matrix(0.00000000130836, -0.749634, 0.749634, 0.00000000130836, 451.656977, 378.623086)"></path>
<path class="path-124" d="M -0.0014315 2.002371 L 51.085991 2.002371 " fill="none" stroke="#af8c53" stroke-linecap="butt" stroke-linejoin="miter" stroke-miterlimit="4" stroke-opacity="1" stroke-width="4" transform="matrix(0.749634, -0.0000000000554706, 0.0000000000554706, 0.749634, 363.950292, 407.975517)"></path>
<path class="path-125" d="M 43.087298 -4.000557 L 51.085991 2.002371 L 43.087298 8.000089 " fill="none" stroke="#af8c53" stroke-linecap="round" stroke-linejoin="round" stroke-miterlimit="4" stroke-opacity="1" stroke-width="4" transform="matrix(0.749634, -0.0000000000554706, 0.0000000000554706, 0.749634, 363.950292, 407.975517)"></path>
<path class="path-126" d="M -0.000536661 2.001055 L 51.576708 2.001055 " fill="none" stroke="#af8c53" stroke-linecap="butt" stroke-linejoin="miter" stroke-miterlimit="4" stroke-opacity="1" stroke-width="4" transform="matrix(0.749634, 0, 0, 0.749634, 502.574621, 399.38666)"></path>
<path class="path-127" d="M 43.572804 -4.001874 L 51.576708 2.001055 L 43.572804 7.998772 " fill="none" stroke="#af8c53" stroke-linecap="round" stroke-linejoin="round" stroke-miterlimit="4" stroke-opacity="1" stroke-width="4" transform="matrix(0.749634, 0, 0, 0.749634, 502.574621, 399.38666)"></path>
<path class="path-128" d="M 0.00204927 2.001055 L 51.574084 2.001055 " fill="none" stroke="#af8c53" stroke-linecap="butt" stroke-linejoin="miter" stroke-miterlimit="4" stroke-opacity="1" stroke-width="4" transform="matrix(0.749634, 0, 0, 0.749634, 641.56487, 399.38666)"></path>
<path class="path-129" d="M 43.57539 -4.001874 L 51.574084 2.001055 L 43.57539 7.998772 " fill="none" stroke="#af8c53" stroke-linecap="round" stroke-linejoin="round" stroke-miterlimit="4" stroke-opacity="1" stroke-width="4" transform="matrix(0.749634, 0, 0, 0.749634, 641.56487, 399.38666)"></path>
<path class="path-130" d="M -0.0014315 2.002273 L 51.575814 2.002273 " fill="none" stroke="#af8c53" stroke-linecap="butt" stroke-linejoin="miter" stroke-miterlimit="4" stroke-opacity="1" stroke-width="4" transform="matrix(0.749634, 0, 0, 0.749634, 363.950292, 512.91309)"></path>
<path class="path-131" d="M 43.571909 -4.000655 L 51.575814 2.002273 L 43.571909 7.999991 " fill="none" stroke="#af8c53" stroke-linecap="round" stroke-linejoin="round" stroke-miterlimit="4" stroke-opacity="1" stroke-width="4" transform="matrix(0.749634, 0, 0, 0.749634, 363.950292, 512.91309)"></path>
<path class="path-132" d="M 0.00115763 2.002273 L 51.573192 2.002273 " fill="none" stroke="#af8c53" stroke-linecap="butt" stroke-linejoin="miter" stroke-miterlimit="4" stroke-opacity="1" stroke-width="4" transform="matrix(0.749634, 0, 0, 0.749634, 502.940538, 512.91309)"></path>
<path class="path-133" d="M 43.574498 -4.000655 L 51.573192 2.002273 L 43.574498 7.999991 " fill="none" stroke="#af8c53" stroke-linecap="round" stroke-linejoin="round" stroke-miterlimit="4" stroke-opacity="1" stroke-width="4" transform="matrix(0.749634, 0, 0, 0.749634, 502.940538, 512.91309)"></path>
<path class="path-134" d="M -0.00137131 2.002273 L 51.575874 2.002273 " fill="none" stroke="#af8c53" stroke-linecap="butt" stroke-linejoin="miter" stroke-miterlimit="4" stroke-opacity="1" stroke-width="4" transform="matrix(0.749634, 0, 0, 0.749634, 641.930715, 512.91309)"></path>
<path class="path-135" d="M 43.571969 -4.000655 L 51.575874 2.002273 L 43.571969 7.999991 " fill="none" stroke="#af8c53" stroke-linecap="round" stroke-linejoin="round" stroke-miterlimit="4" stroke-opacity="1" stroke-width="4" transform="matrix(0.749634, 0, 0, 0.749634, 641.930715, 512.91309)"></path>
<path class="path-136" d="M -0.00142999 2.000056 L 45.828223 2.001013 " fill="none" stroke="#af8c53" stroke-linecap="butt" stroke-linejoin="miter" stroke-miterlimit="4" stroke-opacity="1" stroke-width="4" transform="matrix(-0.000240046, 0.749634, -0.749634, -0.000240046, 315.663372, 440.329677)"></path>
<path class="path-137" d="M -0.00142943 2.001814 L 45.828222 1.99756 " fill="none" stroke="#af8c53" stroke-linecap="butt" stroke-linejoin="miter" stroke-miterlimit="4" stroke-opacity="1" stroke-width="4" transform="matrix(-0.000240046, 0.749634, -0.749634, -0.000240046, 734.848284, 440.329677)"></path>
<path class="path-138" d="M -0.000761961 1.997609 L 556.241463 1.999111 " fill="none" stroke="#af8c53" stroke-linecap="butt" stroke-linejoin="miter" stroke-miterlimit="4" stroke-opacity="1" stroke-width="4" transform="matrix(-0.749624, 0.00385039, -0.00385039, -0.749624, 733.358683, 562.442772)"></path>
<path class="path-139" d="M -0.00155716 2.001504 L 35.234383 2.001504 " fill="none" stroke="#af8c53" stroke-linecap="butt" stroke-linejoin="miter" stroke-miterlimit="4" stroke-opacity="1" stroke-width="4" transform="matrix(0, -0.749634, 0.749634, 0, 731.855073, 563.08477)"></path>
<path class="path-140" d="M -0.0014277 1.999745 L 38.095283 1.999745 " fill="none" stroke="#af8c53" stroke-linecap="butt" stroke-linejoin="miter" stroke-miterlimit="4" stroke-opacity="1" stroke-width="4" transform="matrix(0, 0.749634, -0.749634, 0, 317.877983, 536.676852)"></path>
<path class="path-141" d="M 0.0000174252 1.998553 L 35.235957 1.998553 " fill="none" stroke="#af8c53" stroke-linecap="butt" stroke-linejoin="miter" stroke-miterlimit="4" stroke-opacity="1" stroke-width="4" transform="matrix(0, 0.749634, -0.749634, 0, 456.873183, 536.671862)"></path>
<path class="path-142" d="M 0.000684297 2.00194 L 33.808844 2.00194 " fill="none" stroke="#af8c53" stroke-linecap="butt" stroke-linejoin="miter" stroke-miterlimit="4" stroke-opacity="1" stroke-width="4" transform="matrix(0.00000000130836, 0.749634, -0.749634, 0.00000000130836, 595.860098, 536.675268)"></path>
<path class="path-143" d="M 0.00151616 1.997783 L 21.887193 1.997783 " fill="none" stroke="#af8c53" stroke-linecap="butt" stroke-linejoin="miter" stroke-miterlimit="4" stroke-opacity="1" stroke-width="4" transform="matrix(0.00000000130836, 0.749634, -0.749634, 0.00000000130836, 526.364793, 562.018395)"></path>
<path class="path-144" d="M 13.883288 -3.999935 L 21.887193 1.997783 L 13.883288 8.000711 " fill="none" stroke="#af8c53" stroke-linecap="round" stroke-linejoin="round" stroke-miterlimit="4" stroke-opacity="1" stroke-width="4" transform="matrix(0.00000000130836, 0.749634, -0.749634, 0.00000000130836, 526.364793, 562.018395)"></path>
<path class="path-145" d="M 0.0017061 2.002148 L 24.805473 2.002148 C 38.504865 2.002148 49.60924 13.106523 49.60924 26.805915 L 49.60924 61.129951 " fill="none" stroke="#af8c53" stroke-linecap="butt" stroke-linejoin="miter" stroke-miterlimit="4" stroke-opacity="1" stroke-width="4" transform="matrix(0.749634, 0, 0, 0.749634, 694.319034, 609.553809)"></path>
<path class="path-146" d="M 55.606958 53.131257 L 49.60924 61.129951 L 43.606312 53.131257 " fill="none" stroke="#af8c53" stroke-linecap="round" stroke-linejoin="round" stroke-miterlimit="4" stroke-opacity="1" stroke-width="4" transform="matrix(0.749634, 0, 0, 0.749634, 694.319034, 609.553809)"></path>
<path class="path-147" d="M 0.00158552 2.000842 L 350.18976 2.001696 " fill="none" stroke="#af8c53" stroke-linecap="butt" stroke-linejoin="miter" stroke-miterlimit="4" stroke-opacity="1" stroke-width="4" transform="matrix(-0.74963, 0.00234432, -0.00234432, -0.74963, 637.30666, 689.511607)"></path>
<path class="path-148" d="M 342.188953 -4.000229 L 350.18976 2.001696 L 342.187899 8.000473 " fill="none" stroke="#af8c53" stroke-linecap="round" stroke-linejoin="round" stroke-miterlimit="4" stroke-opacity="1" stroke-width="4" transform="matrix(-0.74963, 0.00234432, -0.00234432, -0.74963, 637.30666, 689.511607)"></path>
<path class="path-149" d="M 0.000570331 2.00256 L 43.975148 2.00256 " fill="none" stroke="#af8c53" stroke-linecap="butt" stroke-linejoin="miter" stroke-miterlimit="4" stroke-opacity="1" stroke-width="4" transform="matrix(0, 0.749634, -0.749634, 0, 799.813687, 844.886291)"></path>
<path class="path-150" d="M 35.976454 -4.000369 L 43.975148 2.00256 L 35.976454 8.000278 " fill="none" stroke="#af8c53" stroke-linecap="round" stroke-linejoin="round" stroke-miterlimit="4" stroke-opacity="1" stroke-width="4" transform="matrix(0, 0.749634, -0.749634, 0, 799.813687, 844.886291)"></path>
<path class="path-151" d="M -0.000798706 1.998813 L 43.97899 1.998813 " fill="none" stroke="#af8c53" stroke-linecap="butt" stroke-linejoin="miter" stroke-miterlimit="4" stroke-opacity="1" stroke-width="4" transform="matrix(0, 0.749634, -0.749634, 0, 801.95541, 939.817005)"></path>
<path class="path-152" d="M 35.975085 -3.998904 L 43.97899 1.998813 L 35.975085 8.001742 " fill="none" stroke="#af8c53" stroke-linecap="round" stroke-linejoin="round" stroke-miterlimit="4" stroke-opacity="1" stroke-width="4" transform="matrix(0, 0.749634, -0.749634, 0, 801.95541, 939.817005)"></path>
<path class="path-153" d="M -0.00219974 2.000278 L 43.977589 2.000278 " fill="none" stroke="#af8c53" stroke-linecap="butt" stroke-linejoin="miter" stroke-miterlimit="4" stroke-opacity="1" stroke-width="4" transform="matrix(0, 0.749634, -0.749634, 0, 804.097133, 1034.747743)"></path>
<path class="path-154" d="M 35.978895 -3.99744 L 43.977589 2.000278 L 35.978895 7.997995 " fill="none" stroke="#af8c53" stroke-linecap="round" stroke-linejoin="round" stroke-miterlimit="4" stroke-opacity="1" stroke-width="4" transform="matrix(0, 0.749634, -0.749634, 0, 804.097133, 1034.747743)"></path>
<path class="path-155" d="M 0.00161009 2.001838 L 43.976188 2.001838 " fill="none" stroke="#af8c53" stroke-linecap="butt" stroke-linejoin="miter" stroke-miterlimit="4" stroke-opacity="1" stroke-width="4" transform="matrix(0, 0.749634, -0.749634, 0, 806.238927, 1129.678481)"></path>
<path class="path-156" d="M 35.977494 -4.001091 L 43.976188 2.001838 L 35.977494 7.999555 " fill="none" stroke="#af8c53" stroke-linecap="round" stroke-linejoin="round" stroke-miterlimit="4" stroke-opacity="1" stroke-width="4" transform="matrix(0, 0.749634, -0.749634, 0, 806.238927, 1129.678481)"></path>
<path class="path-157" d="M -0.000932256 2.001623 L 34.979675 2.001623 " fill="none" stroke="#af8c53" stroke-linecap="butt" stroke-linejoin="miter" stroke-miterlimit="4" stroke-opacity="1" stroke-width="4" transform="matrix(0, 0.749634, -0.749634, 0, 273.816891, 1131.008511)"></path>
<path class="path-158" d="M 35.974952 -4.001306 L 43.978856 2.001623 L 35.974952 7.99934 Z M 35.974952 -4.001306 " fill="#af8c53" fill-opacity="1" fill-rule="nonzero" stroke="#af8c53" stroke-linecap="round" stroke-linejoin="round" stroke-miterlimit="4" stroke-opacity="1" stroke-width="4" transform="matrix(0, 0.749634, -0.749634, 0, 273.816891, 1131.008511)"></path>
<path class="path-159" d="M 123.790643 562.150737 L 2.002062 562.150737 L 2.002062 2.00247 L 73.458797 2.00247 " fill="none" stroke="#af8c53" stroke-linecap="butt" stroke-linejoin="miter" stroke-miterlimit="4" stroke-opacity="1" stroke-width="4" transform="matrix(0.749634, 0, 0, 0.749634, 129.819499, 687.338724)"></path>
<path class="path-160" d="M -0.00163685 1.997867 L 126.148447 1.997867 " fill="none" stroke="#af8c53" stroke-linecap="butt" stroke-linejoin="miter" stroke-miterlimit="4" stroke-opacity="1" stroke-width="4" transform="matrix(0.749634, -0.00000000000354548, 0.00000000000354548, 0.749634, 129.177008, 805.178112)"></path>
<path class="path-161" d="M -0.00163685 1.998338 L 126.148447 1.998338 " fill="none" stroke="#af8c53" stroke-linecap="butt" stroke-linejoin="miter" stroke-miterlimit="4" stroke-opacity="1" stroke-width="4" transform="matrix(0.749634, 0, 0, 0.749634, 129.177008, 862.994165)"></path>
<path class="path-162" d="M -0.00163685 2.0014 L 126.148447 2.0014 " fill="none" stroke="#af8c53" stroke-linecap="butt" stroke-linejoin="miter" stroke-miterlimit="4" stroke-opacity="1" stroke-width="4" transform="matrix(0.749634, 0, 0, 0.749634, 129.177008, 925.663745)"></path>
<path class="path-163" d="M -0.00163685 2.000715 L 126.148447 2.000715 " fill="none" stroke="#af8c53" stroke-linecap="butt" stroke-linejoin="miter" stroke-miterlimit="4" stroke-opacity="1" stroke-width="4" transform="matrix(0.749634, 0, 0, 0.749634, 129.177008, 986.191602)"></path>
<path class="path-164" d="M -0.00163685 2.000254 L 126.148447 2.000254 " fill="none" stroke="#af8c53" stroke-linecap="butt" stroke-linejoin="miter" stroke-miterlimit="4" stroke-opacity="1" stroke-width="4" transform="matrix(0.749634, 0, 0, 0.749634, 129.177008, 1046.719292)"></path>
<path class="path-165" d="M -0.00168435 504.964956 L 22.415502 504.964956 L 22.415502 2.000837 L 100.698484 2.000837 " fill="none" stroke="#af8c53" stroke-linecap="butt" stroke-linejoin="miter" stroke-miterlimit="4" stroke-opacity="1" stroke-width="4" transform="matrix(0.749634, 0, 0, 0.749634, 351.376263, 812.644636)"></path>
<path class="path-166" d="M 92.69979 -4.002092 L 100.698484 2.000837 L 92.69979 7.998554 " fill="none" stroke="#af8c53" stroke-linecap="round" stroke-linejoin="round" stroke-miterlimit="4" stroke-opacity="1" stroke-width="4" transform="matrix(0.749634, 0, 0, 0.749634, 351.376263, 812.644636)"></path>
<path class="path-167" d="M 0.0025306 532.000136 L 137.772866 532.000136 L 137.772866 2.001994 L 161.586567 2.001994 " fill="none" stroke="#af8c53" stroke-linecap="butt" stroke-linejoin="miter" stroke-miterlimit="4" stroke-opacity="1" stroke-width="4" transform="matrix(0.749634, 0, 0, 0.749634, 572.435603, 813.15158)"></path>
<path class="path-168" d="M 162.587055 -4.000934 L 170.585749 2.001994 L 162.587055 7.999712 Z M 162.587055 -4.000934 " fill="#af8c53" fill-opacity="1" fill-rule="nonzero" stroke="#af8c53" stroke-linecap="round" stroke-linejoin="round" stroke-miterlimit="4" stroke-opacity="1" stroke-width="4" transform="matrix(0.749634, 0, 0, 0.749634, 572.435603, 813.15158)"></path>
<path class="path-169" d="M -0.000214354 2.001097 L 80.466705 2.001412 " fill="none" stroke="#af8c53" stroke-linecap="butt" stroke-linejoin="miter" stroke-miterlimit="4" stroke-opacity="1" stroke-width="4" transform="matrix(0.0150518, 0.749483, -0.749483, 0.0150518, 524.515416, 978.134103)"></path>
<path class="path-170" d="M 72.467087 -4.001813 L 80.466705 2.001412 L 72.465779 8.001226 " fill="none" stroke="#af8c53" stroke-linecap="round" stroke-linejoin="round" stroke-miterlimit="4" stroke-opacity="1" stroke-width="4" transform="matrix(0.0150518, 0.749483, -0.749483, 0.0150518, 524.515416, 978.134103)"></path>
<path class="path-171" d="M -0.00029388 2.001994 L 22.792075 2.001994 C 28.836691 2.001994 34.636395 4.398997 38.909313 8.677126 C 43.182231 12.950044 45.584444 18.749748 45.584444 24.794364 L 45.584444 79.722202 C 45.584444 90.336755 36.981289 98.945121 26.366736 98.945121 L 7.143816 98.945121 " fill="none" stroke="#af8c53" stroke-linecap="butt" stroke-linejoin="miter" stroke-miterlimit="4" stroke-opacity="1" stroke-width="4" transform="matrix(0.749634, 0, 0, 0.749634, 621.37522, 813.15158)"></path>
<path class="path-172" d="M 15.147721 104.942839 L 7.143816 98.945121 L 15.147721 92.942193 " fill="none" stroke="#af8c53" stroke-linecap="round" stroke-linejoin="round" stroke-miterlimit="4" stroke-opacity="1" stroke-width="4" transform="matrix(0.749634, 0, 0, 0.749634, 621.37522, 813.15158)"></path>
<path class="path-173" d="M -0.00249397 2.001074 L 23.984195 2.001009 " fill="none" stroke="#af8c53" stroke-linecap="butt" stroke-linejoin="miter" stroke-miterlimit="4" stroke-opacity="1" stroke-width="4" transform="matrix(-0.749439, 0.0170973, -0.0170973, -0.749439, 526.426875, 889.948945)"></path>
<path class="path-174" d="M 15.984768 -3.998335 L 23.984195 2.001009 L 15.982077 8.000159 " fill="none" stroke="#af8c53" stroke-linecap="round" stroke-linejoin="round" stroke-miterlimit="4" stroke-opacity="1" stroke-width="4" transform="matrix(-0.749439, 0.0170973, -0.0170973, -0.749439, 526.426875, 889.948945)"></path>
<path class="path-175" d="M 36.284713 2.000533 L 19.140933 2.000533 C 14.597049 2.000533 10.235546 3.803496 7.020436 7.018606 C 3.805326 10.233716 2.002363 14.595219 2.002363 19.144313 L 2.002363 46.694212 C 2.002363 71.378129 22.012125 91.38789 46.690831 91.38789 L 121.664907 91.38789 " fill="none" stroke="#af8c53" stroke-linecap="butt" stroke-linejoin="miter" stroke-miterlimit="4" stroke-opacity="1" stroke-width="4" transform="matrix(0.749634, 0, 0, 0.749634, 380.901304, 887.394863)"></path>
<path class="path-176" d="M 113.666213 85.384962 L 121.664907 91.38789 L 113.666213 97.385608 " fill="none" stroke="#af8c53" stroke-linecap="round" stroke-linejoin="round" stroke-miterlimit="4" stroke-opacity="1" stroke-width="4" transform="matrix(0.749634, 0, 0, 0.749634, 380.901304, 887.394863)"></path>
<path class="path-177" d="M -0.00029388 1.999036 L 22.792075 1.999036 C 28.836691 1.999036 34.636395 4.40125 38.909313 8.674168 C 43.182231 12.952297 45.584444 18.74679 45.584444 24.791406 L 45.584444 79.724454 C 45.584444 90.339008 36.981289 98.942163 26.366736 98.942163 L 7.143816 98.942163 " fill="none" stroke="#af8c53" stroke-linecap="butt" stroke-linejoin="miter" stroke-miterlimit="4" stroke-opacity="1" stroke-width="4" transform="matrix(0.749634, 0, 0, 0.749634, 621.37522, 1066.454579)"></path>
<path class="path-178" d="M 15.147721 104.945092 L 7.143816 98.942163 L 15.147721 92.944445 " fill="none" stroke="#af8c53" stroke-linecap="round" stroke-linejoin="round" stroke-miterlimit="4" stroke-opacity="1" stroke-width="4" transform="matrix(0.749634, 0, 0, 0.749634, 621.37522, 1066.454579)"></path>
<path class="path-179" d="M 31.252799 1.997723 L 16.625872 1.997723 C 8.549015 1.997723 1.998944 8.547793 1.998944 16.62465 L 1.998944 48.145236 C 1.998944 60.385582 6.860691 72.125685 15.515955 80.780949 C 24.171219 89.431002 35.906111 94.29796 48.146457 94.29796 L 116.632993 94.29796 " fill="none" stroke="#af8c53" stroke-linecap="butt" stroke-linejoin="miter" stroke-miterlimit="4" stroke-opacity="1" stroke-width="4" transform="matrix(0.749634, 0, 0, 0.749634, 384.673398, 1141.268064)"></path>
<path class="path-180" d="M 108.634299 88.295031 L 116.632993 94.29796 L 108.634299 100.295677 " fill="none" stroke="#af8c53" stroke-linecap="round" stroke-linejoin="round" stroke-miterlimit="4" stroke-opacity="1" stroke-width="4" transform="matrix(0.749634, 0, 0, 0.749634, 384.673398, 1141.268064)"></path>
<path class="path-181" d="M 0.000208467 1.997556 L 23.981688 1.997372 " fill="none" stroke="#af8c53" stroke-linecap="butt" stroke-linejoin="miter" stroke-miterlimit="4" stroke-opacity="1" stroke-width="4" transform="matrix(-0.749439, 0.0170973, -0.0170973, -0.749439, 526.475715, 1144.313449)"></path>
<path class="path-182" d="M 15.982261 -4.001972 L 23.981688 1.997372 L 15.984661 8.001851 " fill="none" stroke="#af8c53" stroke-linecap="round" stroke-linejoin="round" stroke-miterlimit="4" stroke-opacity="1" stroke-width="4" transform="matrix(-0.749439, 0.0170973, -0.0170973, -0.749439, 526.475715, 1144.313449)"></path>
<g clip-path="url(#8a23f58e8d)">
<g clip-path="url(#e37f12a2a0)">
<path class="path-183" d="M 13.997077 0.00120477 L 117.828975 0.00120477 C 121.544329 0.00120477 125.103356 1.475882 127.729637 4.102163 C 130.350707 6.723234 131.830596 10.287472 131.830596 13.997615 L 131.830596 68.294934 C 131.830596 72.010288 130.350707 75.569316 127.729637 78.195597 C 125.103356 80.821878 121.544329 82.296555 117.828975 82.296555 L 13.997077 82.296555 C 10.286934 82.296555 6.727906 80.821878 4.101625 78.195597 C 1.475344 75.569316 0.000666686 72.010288 0.000666686 68.294934 L 0.000666686 13.997615 C 0.000666686 10.287472 1.475344 6.723234 4.101625 4.102163 C 6.727906 1.475882 10.286934 0.00120477 13.997077 0.00120477 Z M 13.997077 0.00120477 " fill="none" stroke="#af8c53" stroke-linecap="butt" stroke-linejoin="miter" stroke-miterlimit="4" stroke-opacity="1" stroke-width="8" transform="matrix(0.749634, 0, 0, 0.749634, 403.745594, 378.628003)"></path>
</g>
</g>
<g clip-path="url(#862fb1123e)">
<g clip-path="url(#e81affa522)">
<path class="path-184" d="M 14.001421 0.00120477 L 117.828108 0.00120477 C 121.543462 0.00120477 125.10249 1.475882 127.728771 4.102163 C 130.355052 6.723234 131.829729 10.287472 131.829729 13.997615 L 131.829729 68.294934 C 131.829729 72.010288 130.355052 75.569316 127.728771 78.195597 C 125.10249 80.821878 121.543462 82.296555 117.828108 82.296555 L 14.001421 82.296555 C 10.286067 82.296555 6.72704 80.821878 4.100759 78.195597 C 1.474478 75.569316 -0.000199963 72.010288 -0.000199963 68.294934 L -0.000199963 13.997615 C -0.000199963 10.287472 1.474478 6.723234 4.100759 4.102163 C 6.72704 1.475882 10.286067 0.00120477 14.001421 0.00120477 Z M 14.001421 0.00120477 " fill="none" stroke="#af8c53" stroke-linecap="butt" stroke-linejoin="miter" stroke-miterlimit="4" stroke-opacity="1" stroke-width="8" transform="matrix(0.749634, 0, 0, 0.749634, 543.101712, 378.628003)"></path>
</g>
</g>
<g clip-path="url(#afe0574e64)">
<g clip-path="url(#1dc3b0608c)">
<path class="path-185" d="M 13.998322 0.00138196 L 243.464418 0.00138196 C 247.179772 0.00138196 250.7388 1.47606 253.365081 4.102341 C 255.991362 6.723411 257.46604 10.287649 257.46604 13.997792 L 257.46604 66.658896 C 257.46604 70.369039 255.991362 73.928067 253.365081 76.554348 C 250.7388 79.180629 247.179772 80.655307 243.464418 80.655307 L 13.998322 80.655307 C 10.288179 80.655307 6.723941 79.180629 4.10287 76.554348 C 1.476589 73.928067 0.00191164 70.369039 0.00191164 66.658896 L 0.00191164 13.997792 C 0.00191164 10.287649 1.476589 6.723411 4.10287 4.102341 C 6.723941 1.47606 10.288179 0.00138196 13.998322 0.00138196 Z M 13.998322 0.00138196 " fill="none" stroke="#af8c53" stroke-linecap="butt" stroke-linejoin="miter" stroke-miterlimit="4" stroke-opacity="1" stroke-width="8" transform="matrix(0.749634, 0, 0, 0.749634, 702.455598, 1165.026308)"></path>
</g>
</g>
</svg>